<svg version="1.1" id="logointro" xmlns="http://www.w3.org/2000/svg" xmlns:xlink="http://www.w3.org/1999/xlink" x="0px" y="0px"
	 width="450px" height="261.772px" viewBox="0 0 450 261.772" enable-background="new 0 0 450 261.772" xml:space="preserve">
<path fill="#f68e2f" d="M130.543,19.413c0,6.229-1.395,10.971-4.184,14.225c-2.976,3.44-7.438,5.114-13.296,5.114h-5.485V68.69
	h-3.254V35.497h8.74c9.669,0,14.133-5.021,14.133-16.084c0-10.879-4.463-15.993-14.133-15.993h-8.926h-2.045h-3.254V0.166h14.225
	c5.858,0,10.321,1.674,13.296,5.113C129.148,8.44,130.543,13.182,130.543,19.413z M102.091,68.69h-3.254V5.651h3.254V68.69z
	 M113.062,33.265h-8.74V5.651h8.74c4.184,0,7.252,1.022,9.112,3.161c1.952,2.138,2.882,5.672,2.882,10.6
	C125.057,29.175,121.524,33.265,113.062,33.265z M107.577,30.011h5.485c4.835,0,6.137-1.487,6.602-2.138
	c1.395-1.581,2.045-4.37,2.045-8.46c0-8.833-2.975-10.507-8.647-10.507h-5.485V30.011z"/>
<path fill="#f68e2f" d="M166.336,48.606v20.27h-3.346v-20.27c0-4.556-1.302-8.182-3.999-10.878
	c-1.116-1.022-2.417-1.859-3.905-2.51c5.207-1.953,7.81-7.065,7.81-15.341c0-5.485-1.116-9.576-3.347-12.18
	c-2.324-2.697-5.858-3.998-10.786-3.998h-9.855h-1.117h-3.254V0.352h14.226c5.858,0,10.321,1.767,13.296,5.207
	c2.696,3.161,4.091,7.903,4.091,14.318c0,6.323-1.395,11.158-4.091,14.412c-0.279,0.279-0.558,0.65-0.93,0.929
	C164.477,38.472,166.336,42.935,166.336,48.606z M137.792,68.876h-3.254V5.837h3.254V68.876z M147.648,34.009h-7.625V5.837h8.74
	c4.184,0,7.252,1.115,9.112,3.254c1.86,2.231,2.789,5.858,2.789,10.785c0,10.042-3.439,14.133-11.901,14.133H147.648z
	 M157.504,68.876v-20.27c0-6.043-2.882-9.018-8.74-9.018h-4.37h-1.116v29.288h-3.254V36.241h7.625h1.115
	c7.717,0,12.087,4.463,12.087,12.366v20.27H157.504z M144.394,30.755h4.37c4.742,0,6.137-1.487,6.602-2.138
	c1.395-1.766,2.045-4.648,2.045-8.74c0-9.205-2.976-10.692-8.647-10.692h-5.486v21.571H144.394z"/>
<path fill="#f68e2f" d="M203.433,19.598v29.567c0,6.136-1.301,10.785-3.904,14.039c-1.953,2.511-5.672,5.486-12.366,5.486
	s-10.414-2.975-12.366-5.486c-2.604-3.254-3.905-7.903-3.905-14.039V19.598c0-6.043,1.301-10.692,3.905-14.039
	c1.953-2.51,5.672-5.393,12.366-5.393s10.414,2.883,12.366,5.393C202.131,8.906,203.433,13.555,203.433,19.598z M200.179,19.598
	c0-5.299-1.116-9.297-3.254-11.994c-2.231-2.789-5.485-4.184-9.762-4.184c-4.277,0-7.531,1.395-9.763,4.184
	c-2.138,2.696-3.254,6.694-3.254,11.994v29.567c0,5.299,1.116,9.297,3.254,11.994c2.325,2.882,5.579,4.277,9.763,4.277
	c4.183,0,7.438-1.395,9.762-4.277c2.139-2.697,3.254-6.695,3.254-11.994V19.598z M195.158,8.999c1.86,2.23,2.79,5.764,2.79,10.599
	v29.567c0,9.39-3.626,14.039-10.785,14.039c-7.159,0-10.786-4.649-10.786-14.039V19.598c0-4.834,0.93-8.368,2.789-10.599
	c1.674-2.232,4.37-3.348,7.997-3.348C190.788,5.651,193.484,6.767,195.158,8.999z M194.693,19.598
	c0-10.692-4.928-10.692-7.531-10.692c-2.604,0-7.531,0-7.531,10.692v29.567c0,10.785,4.928,10.785,7.531,10.785
	c2.603,0,7.531,0,7.531-10.785V19.598z"/>
<path fill="#f68e2f" d="M238.298,24.247v-4.371c0-5.299-1.022-9.39-3.161-12.086c-2.232-2.696-5.486-4.091-9.763-4.091
	c-4.277,0-7.532,1.395-9.763,4.091c-2.138,2.882-3.254,6.88-3.254,12.086v29.474c0,13.482,7.066,16.271,13.017,16.271
	c5.857,0,12.924-2.789,12.924-16.271v-4.463h3.348v4.463c0,6.044-1.303,10.692-3.999,14.04c-1.953,2.51-5.578,5.486-12.272,5.486
	s-10.414-2.976-12.366-5.486c-2.604-3.254-3.906-7.903-3.906-14.04V19.876c0-6.043,1.302-10.785,3.906-14.039
	c1.952-2.51,5.671-5.486,12.366-5.486s10.319,2.976,12.272,5.486c2.696,3.347,3.999,7.996,3.999,14.039v4.371H238.298z
	 M236.159,19.876v4.371h-3.347v-4.371c0-10.692-4.835-10.692-7.438-10.692s-7.532,0-7.532,10.692v29.474
	c0,3.998,0.744,6.88,2.139,8.647c0.65,1.022,2.045,2.139,5.393,2.139c3.347,0,4.648-1.117,5.393-2.139
	c1.395-1.767,2.046-4.649,2.046-8.647v-4.463h3.347v4.463c0,9.391-3.626,14.04-10.785,14.04c-7.16,0-10.786-4.649-10.786-14.04
	V19.876c0-9.39,3.626-14.039,10.786-14.039C232.533,5.837,236.159,10.486,236.159,19.876z"/>
<path fill="#f68e2f" d="M250.383,65.622h25.104v3.255H247.13V0.352h28.357v3.347h-25.104v29.845v2.139V65.622z M275.487,9.184
	h-19.619v21.014h19.619v3.346h-22.872V5.837h22.872V9.184z M275.487,39.03h-19.619v21.106h19.619v3.254h-22.872V35.683h22.872
	V39.03z"/>
<path fill="#f68e2f" d="M281.715,19.97c0-11.622,6.602-19.618,16.365-19.618c6.694,0,10.413,2.882,12.365,5.392
	c2.697,3.44,3.997,8.183,3.997,14.226v4.37h-3.346v-4.37c0-5.485-1.116-9.483-3.255-12.087c-2.138-2.789-5.393-4.184-9.762-4.184
	c-4.185,0-7.532,1.58-9.856,4.835c-2.138,2.882-3.254,6.695-3.254,11.436c0,10.785,8.367,14.319,11.9,15.807l1.581,0.743
	c3.161,1.208,10.507,4.184,10.507,13.389c0,8.554-4.091,13.482-10.878,13.482c-3.627,0-6.323-1.116-8.09-3.254
	c-1.859-2.325-2.789-5.858-2.789-10.693v-4.37h3.254v4.37c0,3.998,0.744,6.88,2.139,8.647c0.651,0.836,2.046,2.045,5.486,2.045
	c6.694,0,7.53-6.416,7.53-10.229c0-6.415-4.37-8.553-8.367-10.32l-1.675-0.744c-1.952-0.837-5.298-2.231-8.274-5.114
	C283.574,30.104,281.715,25.548,281.715,19.97z M314.442,49.908c0,5.3-1.3,9.67-3.903,13.11c-3.069,3.905-7.16,5.858-12.459,5.858
	c-5.486,0-9.578-1.767-12.367-5.3c-2.696-3.254-3.998-7.996-3.998-14.132v-4.37h3.255v4.37c0,5.299,1.116,9.39,3.254,12.087
	c2.231,2.696,5.485,4.091,9.856,4.091c4.091,0,7.53-1.58,9.762-4.649c2.139-2.696,3.255-6.602,3.255-11.064
	c0-10.692-8.555-14.226-11.808-15.434l-1.488-0.65c-3.44-1.488-10.6-4.743-10.6-13.854c0-6.415,2.882-14.132,10.879-14.132
	c3.626,0,6.321,1.115,8.089,3.347c1.858,2.325,2.789,5.951,2.789,10.786v4.37h-3.348v-4.37c0-10.786-4.927-10.786-7.53-10.786
	c-7.067,0-7.625,8.182-7.625,10.786c0,6.322,4.277,9.111,8.646,10.785l1.488,0.651c1.766,0.744,5.114,1.953,8.089,4.834
	C312.491,39.774,314.442,44.33,314.442,49.908z"/>
<path fill="#f68e2f" d="M318.625,19.97c0-11.622,6.603-19.618,16.364-19.618c6.695,0,10.414,2.882,12.367,5.392
	c2.696,3.44,3.997,8.183,3.997,14.226v4.37h-3.346v-4.37c0-5.485-1.117-9.483-3.256-12.087c-2.138-2.789-5.392-4.184-9.763-4.184
	c-4.184,0-7.53,1.58-9.855,4.835c-2.138,2.882-3.254,6.695-3.254,11.436c0,10.785,8.368,14.319,11.9,15.807l1.58,0.743
	c3.162,1.208,10.508,4.184,10.508,13.389c0,8.554-4.091,13.482-10.879,13.482c-3.626,0-6.321-1.116-8.09-3.254
	c-1.857-2.325-2.789-5.858-2.789-10.693v-4.37h3.255v4.37c0,3.998,0.744,6.88,2.139,8.647c0.651,0.836,2.045,2.045,5.485,2.045
	c6.695,0,7.532-6.416,7.532-10.229c0-6.415-4.371-8.553-8.368-10.32l-1.674-0.744c-1.952-0.837-5.3-2.231-8.275-5.114
	C320.484,30.104,318.625,25.548,318.625,19.97z M351.354,49.908c0,5.3-1.301,9.67-3.905,13.11
	c-3.068,3.905-7.158,5.858-12.459,5.858c-5.485,0-9.576-1.767-12.365-5.3c-2.697-3.254-3.999-7.996-3.999-14.132v-4.37h3.255v4.37
	c0,5.299,1.116,9.39,3.254,12.087c2.231,2.696,5.486,4.091,9.855,4.091c4.092,0,7.532-1.58,9.763-4.649
	c2.139-2.696,3.256-6.602,3.256-11.064c0-10.692-8.556-14.226-11.81-15.434l-1.487-0.65c-3.439-1.488-10.601-4.743-10.601-13.854
	c0-6.415,2.883-14.132,10.879-14.132c3.626,0,6.323,1.115,8.09,3.347c1.859,2.325,2.789,5.951,2.789,10.786v4.37h-3.347v-4.37
	c0-10.786-4.928-10.786-7.532-10.786c-7.066,0-7.624,8.182-7.624,10.786c0,6.322,4.277,9.111,8.646,10.785l1.488,0.651
	c1.767,0.744,5.114,1.953,8.09,4.834C349.401,39.774,351.354,44.33,351.354,49.908z"/>
<path fill="#f68e2f" d="M388.077,19.598v29.567c0,6.136-1.302,10.785-3.903,14.039c-1.954,2.511-5.673,5.486-12.367,5.486
	s-10.413-2.975-12.366-5.486c-2.604-3.254-3.905-7.903-3.905-14.039V19.598c0-6.043,1.301-10.692,3.905-14.039
	c1.953-2.51,5.672-5.393,12.366-5.393s10.413,2.883,12.367,5.393C386.775,8.906,388.077,13.555,388.077,19.598z M384.822,19.598
	c0-5.299-1.114-9.297-3.253-11.994c-2.231-2.789-5.485-4.184-9.763-4.184s-7.531,1.395-9.763,4.184
	c-2.139,2.696-3.254,6.694-3.254,11.994v29.567c0,5.299,1.115,9.297,3.254,11.994c2.324,2.882,5.579,4.277,9.763,4.277
	s7.438-1.395,9.763-4.277c2.139-2.697,3.253-6.695,3.253-11.994V19.598z M379.802,8.999c1.86,2.23,2.789,5.764,2.789,10.599
	v29.567c0,9.39-3.626,14.039-10.784,14.039s-10.786-4.649-10.786-14.039V19.598c0-4.834,0.931-8.368,2.79-10.599
	c1.674-2.232,4.37-3.348,7.996-3.348S378.129,6.767,379.802,8.999z M379.338,19.598c0-10.692-4.928-10.692-7.531-10.692
	s-7.531,0-7.531,10.692v29.567c0,10.785,4.928,10.785,7.531,10.785s7.531,0,7.531-10.785V19.598z"/>
<path fill="#f68e2f" d="M393.747,19.97c0-11.622,6.602-19.618,16.364-19.618c6.693,0,10.414,2.882,12.366,5.392
	c2.696,3.44,3.997,8.183,3.997,14.226v4.37h-3.347v-4.37c0-5.485-1.115-9.483-3.254-12.087c-2.138-2.789-5.393-4.184-9.763-4.184
	c-4.184,0-7.531,1.58-9.855,4.835c-2.138,2.882-3.254,6.695-3.254,11.436c0,10.785,8.367,14.319,11.9,15.807l1.58,0.743
	c3.162,1.208,10.507,4.184,10.507,13.389c0,8.554-4.09,13.482-10.878,13.482c-3.626,0-6.322-1.116-8.089-3.254
	c-1.859-2.325-2.79-5.858-2.79-10.693v-4.37h3.255v4.37c0,3.998,0.744,6.88,2.139,8.647c0.651,0.836,2.046,2.045,5.485,2.045
	c6.693,0,7.531-6.416,7.531-10.229c0-6.415-4.37-8.553-8.367-10.32l-1.675-0.744c-1.952-0.837-5.299-2.231-8.274-5.114
	C395.606,30.104,393.747,25.548,393.747,19.97z M426.475,49.908c0,5.3-1.301,9.67-3.904,13.11
	c-3.068,3.905-7.16,5.858-12.459,5.858c-5.485,0-9.577-1.767-12.366-5.3c-2.696-3.254-3.998-7.996-3.998-14.132v-4.37h3.255v4.37
	c0,5.299,1.116,9.39,3.254,12.087c2.231,2.696,5.485,4.091,9.855,4.091c4.092,0,7.531-1.58,9.763-4.649
	c2.139-2.696,3.254-6.602,3.254-11.064c0-10.692-8.554-14.226-11.808-15.434l-1.488-0.65c-3.44-1.488-10.6-4.743-10.6-13.854
	c0-6.415,2.883-14.132,10.879-14.132c3.627,0,6.322,1.115,8.089,3.347c1.859,2.325,2.789,5.951,2.789,10.786v4.37h-3.347v-4.37
	c0-10.786-4.927-10.786-7.531-10.786c-7.066,0-7.624,8.182-7.624,10.786c0,6.322,4.277,9.111,8.646,10.785l1.487,0.651
	c1.767,0.744,5.115,1.953,8.09,4.834C424.522,39.774,426.475,44.33,426.475,49.908z"/>
<path fill="#f68e2f" d="M102.091,161.483h25.104v3.255H98.837V96.214h28.358v3.347h-25.104v29.845v2.139V161.483z
	 M127.195,105.046h-19.618v21.014h19.618v3.347h-22.873v-27.707h22.873V105.046z M127.195,134.893h-19.618v21.105h19.618v3.254
	h-22.873v-27.707h22.873V134.893z"/>
<path fill="#f68e2f" d="M188.373,115.274c0,6.229-1.395,10.972-4.184,14.225c-2.976,3.44-7.438,5.114-13.296,5.114h-5.485v29.938
	h-3.254v-33.193h8.74c9.669,0,14.133-5.021,14.133-16.084c0-10.879-4.463-15.993-14.133-15.993h-8.926h-2.045h-3.254v-3.254
	h14.225c5.858,0,10.321,1.674,13.296,5.114C186.978,104.303,188.373,109.044,188.373,115.274z M159.921,164.552h-3.254v-63.039
	h3.254V164.552z M170.893,129.127h-8.74v-27.614h8.74c4.184,0,7.252,1.022,9.112,3.161c1.952,2.138,2.882,5.672,2.882,10.6
	C182.887,125.037,179.354,129.127,170.893,129.127z M165.407,125.873h5.485c4.835,0,6.137-1.487,6.602-2.139
	c1.395-1.58,2.045-4.369,2.045-8.46c0-8.834-2.975-10.507-8.647-10.507h-5.485V125.873z"/>
<path fill="#f68e2f" d="M224.166,144.469v20.27h-3.346v-20.27c0-4.556-1.302-8.182-3.999-10.879
	c-1.116-1.022-2.417-1.859-3.905-2.509c5.207-1.954,7.81-7.067,7.81-15.342c0-5.486-1.116-9.576-3.347-12.181
	c-2.324-2.697-5.858-3.998-10.786-3.998h-9.855h-1.116h-3.254v-3.347h14.226c5.858,0,10.321,1.766,13.296,5.207
	c2.696,3.16,4.091,7.903,4.091,14.319c0,6.322-1.395,11.157-4.091,14.411c-0.279,0.279-0.558,0.65-0.93,0.931
	C222.307,134.334,224.166,138.797,224.166,144.469z M195.623,164.738h-3.254v-63.039h3.254V164.738z M205.478,129.871h-7.624
	v-28.172h8.74c4.184,0,7.252,1.116,9.112,3.254c1.86,2.231,2.789,5.857,2.789,10.786c0,10.041-3.439,14.132-11.901,14.132H205.478
	z M215.334,164.738v-20.27c0-6.044-2.882-9.019-8.74-9.019h-4.37h-1.116v29.288h-3.254v-32.636h7.624h1.116
	c7.717,0,12.087,4.462,12.087,12.366v20.27H215.334z M202.224,126.617h4.37c4.742,0,6.137-1.488,6.602-2.138
	c1.395-1.767,2.045-4.649,2.045-8.74c0-9.205-2.976-10.693-8.647-10.693h-5.486v21.571H202.224z"/>
<path fill="#f68e2f" d="M261.263,115.459v29.568c0,6.136-1.303,10.785-3.906,14.039c-1.951,2.51-5.671,5.485-12.364,5.485
	c-6.695,0-10.413-2.976-12.367-5.485c-2.604-3.254-3.904-7.903-3.904-14.039v-29.568c0-6.043,1.3-10.691,3.904-14.039
	c1.954-2.51,5.672-5.393,12.367-5.393c6.693,0,10.413,2.883,12.364,5.393C259.96,104.768,261.263,109.416,261.263,115.459z
	 M258.008,115.459c0-5.298-1.114-9.296-3.254-11.993c-2.232-2.789-5.485-4.184-9.762-4.184c-4.277,0-7.532,1.395-9.764,4.184
	c-2.138,2.697-3.254,6.695-3.254,11.993v29.568c0,5.299,1.116,9.297,3.254,11.994c2.325,2.882,5.579,4.276,9.764,4.276
	c4.184,0,7.438-1.395,9.762-4.276c2.14-2.697,3.254-6.695,3.254-11.994V115.459z M252.987,104.86
	c1.86,2.231,2.789,5.765,2.789,10.599v29.568c0,9.39-3.626,14.039-10.784,14.039c-7.16,0-10.787-4.649-10.787-14.039v-29.568
	c0-4.834,0.932-8.367,2.79-10.599c1.674-2.232,4.37-3.347,7.997-3.347C248.618,101.513,251.313,102.628,252.987,104.86z
	 M252.521,115.459c0-10.691-4.927-10.691-7.529-10.691c-2.604,0-7.532,0-7.532,10.691v29.568c0,10.785,4.929,10.785,7.532,10.785
	c2.603,0,7.529,0,7.529-10.785V115.459z"/>
<path fill="#f68e2f" d="M297.987,116.11v28.823c0,6.229-1.394,11.064-4.091,14.318c-2.975,3.627-7.438,5.486-13.296,5.486h-13.668
	v-3.255h3.255h1.115h9.298c4.742,0,8.275-1.395,10.785-4.276c2.231-2.79,3.348-6.881,3.348-12.273V116.11
	c0-5.393-1.116-9.483-3.348-12.273c-2.417-2.882-6.043-4.276-10.785-4.276h-9.298h-1.115h-3.255v-3.347h13.668
	c5.857,0,10.321,1.859,13.296,5.578C296.594,105.046,297.987,109.881,297.987,116.11z M270.188,159.252h-3.255v-57.553h3.255
	V159.252z M280.601,159.252h-8.182v-57.553h8.182c4.184,0,7.252,1.209,9.019,3.533c1.953,2.325,2.883,5.951,2.883,10.878v28.823
	c0,4.928-0.93,8.555-2.883,10.879C287.76,158.136,284.784,159.252,280.601,159.252z M275.673,155.998h4.928
	c4.37,0,8.555-0.837,8.555-11.064V116.11c0-10.227-4.185-11.064-8.555-11.064h-4.928V155.998z"/>
<path fill="#f68e2f" d="M334.991,96.214v50.301c0,5.671-1.209,10.041-3.719,13.109c-1.86,2.51-5.394,5.114-11.623,5.114
	s-9.762-2.604-11.622-5.114c-2.51-3.068-3.72-7.438-3.72-13.109V96.214h3.255v50.301c0,4.928,1.022,8.554,3.068,11.064
	c2.046,2.603,5.021,3.904,9.019,3.904s7.066-1.302,9.019-3.904c2.046-2.511,3.068-6.137,3.068-11.064V96.214H334.991z
	 M313.048,96.214v50.301c0,9.483,4.184,9.483,6.602,9.483c2.417,0,6.602,0,6.602-9.483V96.214h3.254v50.301
	c0,4.369-0.837,7.624-2.511,9.763c-1.58,1.952-3.998,2.975-7.345,2.975c-3.255,0-5.764-1.022-7.346-2.975
	c-1.673-2.139-2.51-5.394-2.51-9.763V96.214H313.048z"/>
<path fill="#f68e2f" d="M357.49,99.561h-16.457v-3.347h35.053v3.347h-16.457H357.49z M357.49,164.738h-3.348v-59.692h-13.109
	v-3.347h16.457V164.738z M359.629,101.699h16.457v3.347h-13.11v59.692h-3.347v-3.255V101.699z"/>
<path fill="#f68e2f" d="M411.603,115.459v29.568c0,6.136-1.303,10.785-3.906,14.039c-1.952,2.51-5.671,5.485-12.364,5.485
	c-6.695,0-10.414-2.976-12.367-5.485c-2.604-3.254-3.904-7.903-3.904-14.039v-29.568c0-6.043,1.301-10.691,3.904-14.039
	c1.953-2.51,5.672-5.393,12.367-5.393c6.693,0,10.412,2.883,12.364,5.393C410.3,104.768,411.603,109.416,411.603,115.459z
	 M408.348,115.459c0-5.298-1.114-9.296-3.254-11.993c-2.232-2.789-5.485-4.184-9.762-4.184c-4.278,0-7.532,1.395-9.764,4.184
	c-2.139,2.697-3.254,6.695-3.254,11.993v29.568c0,5.299,1.115,9.297,3.254,11.994c2.325,2.882,5.579,4.276,9.764,4.276
	c4.184,0,7.438-1.395,9.762-4.276c2.14-2.697,3.254-6.695,3.254-11.994V115.459z M403.327,104.86
	c1.859,2.231,2.789,5.765,2.789,10.599v29.568c0,9.39-3.626,14.039-10.784,14.039c-7.16,0-10.787-4.649-10.787-14.039v-29.568
	c0-4.834,0.931-8.367,2.79-10.599c1.673-2.232,4.37-3.347,7.997-3.347C398.957,101.513,401.653,102.628,403.327,104.86z
	 M402.861,115.459c0-10.691-4.927-10.691-7.529-10.691c-2.604,0-7.532,0-7.532,10.691v29.568c0,10.785,4.928,10.785,7.532,10.785
	c2.603,0,7.529,0,7.529-10.785V115.459z"/>
<path fill="#f68e2f" d="M417.272,115.832c0-11.623,6.602-19.618,16.363-19.618c6.694,0,10.413,2.881,12.366,5.392
	c2.696,3.44,3.998,8.182,3.998,14.226v4.37h-3.348v-4.37c0-5.485-1.115-9.483-3.253-12.087c-2.14-2.789-5.393-4.184-9.764-4.184
	c-4.184,0-7.53,1.58-9.856,4.834c-2.138,2.882-3.253,6.694-3.253,11.437c0,10.785,8.368,14.318,11.9,15.806l1.581,0.743
	c3.162,1.209,10.506,4.184,10.506,13.39c0,8.554-4.091,13.481-10.878,13.481c-3.627,0-6.323-1.116-8.089-3.254
	c-1.859-2.324-2.789-5.857-2.789-10.692v-4.369h3.254v4.369c0,3.998,0.744,6.88,2.139,8.646c0.65,0.838,2.046,2.046,5.485,2.046
	c6.694,0,7.531-6.415,7.531-10.228c0-6.415-4.369-8.555-8.368-10.32l-1.673-0.743c-1.953-0.837-5.301-2.231-8.275-5.115
	C419.132,125.966,417.272,121.411,417.272,115.832z M450,145.771c0,5.3-1.302,9.67-3.906,13.109
	c-3.066,3.905-7.158,5.858-12.458,5.858c-5.485,0-9.576-1.768-12.365-5.3c-2.697-3.254-3.998-7.996-3.998-14.133v-4.369h3.254
	v4.369c0,5.3,1.115,9.39,3.253,12.087c2.232,2.696,5.486,4.091,9.856,4.091c4.091,0,7.531-1.58,9.764-4.648
	c2.138-2.696,3.253-6.603,3.253-11.064c0-10.692-8.554-14.226-11.808-15.436l-1.487-0.648c-3.44-1.489-10.6-4.743-10.6-13.854
	c0-6.416,2.882-14.133,10.878-14.133c3.627,0,6.323,1.116,8.089,3.347c1.86,2.326,2.789,5.951,2.789,10.786v4.37h-3.347v-4.37
	c0-10.786-4.929-10.786-7.531-10.786c-7.066,0-7.624,8.183-7.624,10.786c0,6.322,4.277,9.111,8.646,10.785l1.488,0.651
	c1.767,0.743,5.113,1.952,8.09,4.834C448.048,135.636,450,140.192,450,145.771z"/>
<path fill="#f68e2f" d="M128.032,215.972v-4.37c0-5.301-1.023-9.391-3.162-12.086c-2.231-2.698-5.485-4.091-9.762-4.091
	s-7.531,1.393-9.763,4.091c-2.138,2.881-3.254,6.88-3.254,12.086v29.473c0,13.482,7.066,16.272,13.017,16.272
	c5.857,0,12.924-2.79,12.924-16.272v-4.461h3.347v4.461c0,6.045-1.302,10.692-3.998,14.041c-1.953,2.511-5.579,5.485-12.273,5.485
	s-10.414-2.975-12.366-5.485c-2.604-3.254-3.905-7.904-3.905-14.041v-29.473c0-6.045,1.301-10.785,3.905-14.04
	c1.952-2.511,5.671-5.486,12.366-5.486s10.32,2.976,12.273,5.486c2.696,3.349,3.998,7.995,3.998,14.04v4.37H128.032z
	 M125.894,211.602v4.37h-3.347v-4.37c0-10.691-4.835-10.691-7.438-10.691s-7.531,0-7.531,10.691v29.473
	c0,4,0.744,6.881,2.139,8.647c0.65,1.023,2.045,2.14,5.393,2.14s4.649-1.116,5.393-2.14c1.395-1.767,2.046-4.647,2.046-8.647
	v-4.461h3.347v4.461c0,9.392-3.626,14.041-10.785,14.041c-7.159,0-10.786-4.649-10.786-14.041v-29.473
	c0-9.391,3.626-14.04,10.786-14.04C122.267,197.562,125.894,202.211,125.894,211.602z"/>
<path fill="#f68e2f" d="M168.662,240.33v20.271h-3.347V240.33c0-4.555-1.302-8.181-3.998-10.876
	c-1.116-1.024-2.417-1.86-3.905-2.511c5.207-1.954,7.81-7.066,7.81-15.342c0-5.485-1.116-9.576-3.347-12.18
	c-2.325-2.696-5.858-3.997-10.786-3.997h-9.855h-1.116h-3.254v-3.35h14.225c5.857,0,10.321,1.767,13.296,5.207
	c2.696,3.163,4.091,7.904,4.091,14.319c0,6.321-1.395,11.156-4.091,14.412c-0.279,0.278-0.558,0.65-0.93,0.93
	C166.803,230.198,168.662,234.659,168.662,240.33z M140.118,260.601h-3.254v-63.039h3.254V260.601z M149.973,225.733h-7.624
	v-28.172h8.739c4.185,0,7.252,1.115,9.112,3.255c1.859,2.23,2.789,5.856,2.789,10.785c0,10.041-3.44,14.132-11.901,14.132H149.973
	z M159.83,260.601V240.33c0-6.041-2.883-9.018-8.741-9.018h-4.37h-1.116v29.288h-3.254v-32.636h7.624h1.116
	c7.718,0,12.087,4.464,12.087,12.365v20.271H159.83z M146.719,222.479h4.37c4.742,0,6.137-1.486,6.602-2.137
	c1.395-1.77,2.045-4.65,2.045-8.741c0-9.205-2.975-10.691-8.647-10.691h-5.485v21.569H146.719z"/>
<path fill="#f68e2f" d="M179.26,191.984v68.522h-3.254v-68.522H179.26z M181.491,191.984h3.254v68.522h-3.254V191.984z"/>
<path fill="#f68e2f" d="M215.799,192.075l15.899,68.525h-3.441l-14.969-64.619h-2.045l-14.97,64.619h-3.347l15.899-68.525h0.744
	h2.603h0.187h2.604H215.799z M203.712,238.193h17.108l5.206,22.407h-3.347l-4.463-19.061h-11.901l-4.37,19.061h-3.44
	L203.712,238.193z M204.177,236.055l8.089-34.681l7.996,34.681H204.177z M216.171,232.708l-3.905-16.736l-3.905,16.736H216.171z"
	/>
<path fill="#f68e2f" d="M242.761,195.425h-16.457v-3.35h35.053v3.35H244.9H242.761z M242.761,260.601h-3.347v-59.69h-13.11v-3.349
	h16.457V260.601z M244.9,197.562h16.456v3.349h-13.11v59.69H244.9v-3.254V197.562z"/>
<path fill="#f68e2f" d="M272.604,191.984v68.522h-3.254v-68.522H272.604z M274.837,191.984h3.253v68.522h-3.253V191.984z"/>
<path fill="#f68e2f" d="M322.998,192.075h3.44l-17.202,68.525H308.4h-2.511h-0.094h-2.604h-0.835l-17.016-68.525h3.254
	l16.271,64.9h1.859L322.998,192.075z M320.672,192.075l-14.876,59.601l-14.876-59.601h3.44l11.436,46.024l11.623-46.024H320.672z"
	/>
<path fill="#f68e2f" d="M360.745,211.322v29.567c0,6.136-1.302,10.786-3.905,14.04c-1.952,2.511-5.671,5.485-12.365,5.485
	s-10.413-2.975-12.366-5.485c-2.604-3.254-3.905-7.904-3.905-14.04v-29.567c0-6.045,1.302-10.692,3.905-14.04
	c1.953-2.511,5.672-5.392,12.366-5.392s10.413,2.881,12.365,5.392C359.443,200.63,360.745,205.277,360.745,211.322z
	 M357.491,211.322c0-5.3-1.115-9.297-3.254-11.996c-2.232-2.787-5.486-4.182-9.763-4.182c-4.277,0-7.531,1.395-9.764,4.182
	c-2.138,2.699-3.254,6.696-3.254,11.996v29.567c0,5.3,1.116,9.296,3.254,11.992c2.326,2.884,5.58,4.278,9.764,4.278
	s7.438-1.395,9.763-4.278c2.139-2.696,3.254-6.692,3.254-11.992V211.322z M352.471,200.722c1.859,2.234,2.789,5.766,2.789,10.601
	v29.567c0,9.392-3.626,14.04-10.785,14.04c-7.16,0-10.786-4.648-10.786-14.04v-29.567c0-4.835,0.93-8.366,2.789-10.601
	c1.674-2.23,4.37-3.346,7.997-3.346C348.101,197.376,350.797,198.491,352.471,200.722z M352.005,211.322
	c0-10.692-4.928-10.692-7.53-10.692c-2.604,0-7.531,0-7.531,10.692v29.567c0,10.786,4.928,10.786,7.531,10.786
	c2.603,0,7.53,0,7.53-10.786V211.322z"/>
<path fill="#f68e2f" d="M366.415,211.693c0-11.622,6.602-19.618,16.364-19.618c6.694,0,10.413,2.884,12.366,5.395
	c2.696,3.44,3.998,8.182,3.998,14.224v4.369h-3.349v-4.369c0-5.486-1.114-9.482-3.253-12.087c-2.14-2.789-5.393-4.182-9.763-4.182
	c-4.184,0-7.53,1.58-9.856,4.832c-2.138,2.884-3.254,6.695-3.254,11.437c0,10.786,8.369,14.32,11.901,15.807l1.581,0.744
	c3.161,1.21,10.506,4.185,10.506,13.39c0,8.552-4.092,13.481-10.878,13.481c-3.627,0-6.323-1.115-8.09-3.254
	c-1.858-2.326-2.789-5.857-2.789-10.692v-4.37h3.255v4.37c0,3.997,0.743,6.88,2.139,8.646c0.65,0.836,2.045,2.046,5.485,2.046
	c6.694,0,7.53-6.416,7.53-10.228c0-6.415-4.369-8.555-8.367-10.321l-1.673-0.744c-1.954-0.836-5.301-2.23-8.276-5.114
	C368.275,221.829,366.415,217.272,366.415,211.693z M399.144,241.634c0,5.298-1.302,9.668-3.906,13.108
	c-3.067,3.905-7.158,5.858-12.458,5.858c-5.485,0-9.576-1.768-12.366-5.3c-2.696-3.255-3.998-7.996-3.998-14.132v-4.37h3.254v4.37
	c0,5.298,1.116,9.391,3.254,12.087c2.232,2.696,5.486,4.091,9.856,4.091c4.09,0,7.53-1.581,9.763-4.65
	c2.139-2.695,3.253-6.601,3.253-11.062c0-10.694-8.553-14.226-11.808-15.436l-1.487-0.65c-3.439-1.488-10.6-4.741-10.6-13.854
	c0-6.416,2.883-14.132,10.879-14.132c3.626,0,6.323,1.115,8.089,3.349c1.859,2.322,2.789,5.95,2.789,10.783v4.369h-3.348v-4.369
	c0-10.783-4.928-10.783-7.53-10.783c-7.066,0-7.624,8.181-7.624,10.783c0,6.323,4.277,9.113,8.646,10.786l1.487,0.65
	c1.768,0.744,5.113,1.953,8.09,4.835C397.19,231.499,399.144,236.055,399.144,241.634z"/>
<polygon fill="#f68e2f" points="0,204.095 66.794,0 66.794,261.772 	"/>
</svg>
