<?xml version="1.0" encoding="utf-8"?>
<!-- Generator: Adobe Illustrator 16.0.0, SVG Export Plug-In . SVG Version: 6.00 Build 0)  -->
<!DOCTYPE svg PUBLIC "-//W3C//DTD SVG 1.1//EN" "http://www.w3.org/Graphics/SVG/1.1/DTD/svg11.dtd">
<svg version="1.1" id="Layer_1" xmlns="http://www.w3.org/2000/svg" xmlns:xlink="http://www.w3.org/1999/xlink" x="0px" y="0px"
	 width="43.409px" height="26.113px" viewBox="0 0 43.409 26.113" enable-background="new 0 0 43.409 26.113" xml:space="preserve">
<g>
	<g>
		<path d="M9.794,12.568c-0.546,0.265-1.755,0.568-3.301,0.568C2.453,13.137,0,10.606,0,6.719C0,2.529,2.926,0,6.814,0
			C8.34,0,9.419,0.32,9.89,0.566l-0.491,1.85c-0.604-0.264-1.453-0.492-2.49-0.492c-2.586,0-4.455,1.625-4.455,4.682
			c0,2.812,1.623,4.587,4.436,4.587c0.926,0,1.906-0.19,2.53-0.454L9.794,12.568z"/>
		<path d="M15.988,0.207v12.72h-2.324V0.207H15.988z"/>
		<path d="M23.084,9.324l-1.095,3.603h-2.398l4.078-12.72h2.963l4.133,12.72h-2.512l-1.15-3.603H23.084z M26.727,7.568l-1.001-3.133
			c-0.247-0.773-0.452-1.642-0.64-2.379h-0.04c-0.188,0.737-0.397,1.623-0.604,2.379l-0.983,3.133H26.727z"/>
		<path d="M34.428,0.395c0.887-0.168,2.168-0.282,3.508-0.282c1.832,0,3.059,0.303,3.928,1.022c0.697,0.583,1.094,1.47,1.094,2.564
			c0,1.645-1.112,2.755-2.32,3.172v0.056c0.922,0.339,1.471,1.228,1.771,2.454c0.418,1.586,0.756,3.057,1.001,3.546h-2.377
			c-0.19-0.378-0.511-1.413-0.85-2.999c-0.376-1.66-0.963-2.189-2.284-2.227h-1.171v5.226h-2.3V0.395z M36.728,6.001h1.38
			c1.566,0,2.529-0.83,2.529-2.095c0-1.377-0.963-2.038-2.474-2.038c-0.735,0-1.207,0.056-1.436,0.112V6.001z"/>
	</g>
	<g>
		<g>
			<path d="M2.399,21.162c-0.126,0.063-0.388,0.128-0.718,0.128c-0.765,0-1.336-0.483-1.336-1.376c0-0.855,0.575-1.426,1.418-1.426
				c0.333,0,0.55,0.07,0.645,0.119l-0.09,0.285C2.19,18.829,2,18.779,1.773,18.779c-0.637,0-1.061,0.41-1.061,1.121
				c0,0.67,0.384,1.092,1.042,1.092c0.218,0,0.436-0.045,0.576-0.113L2.399,21.162z"/>
			<path d="M4.378,19.974H3.326v0.979h1.177v0.295h-1.53V18.53h1.469v0.294H3.326v0.859h1.052V19.974z"/>
			<path d="M5.095,21.248V18.53h0.387l0.865,1.375c0.196,0.318,0.358,0.603,0.483,0.882l0.012-0.004
				c-0.033-0.361-0.04-0.693-0.04-1.115V18.53h0.331v2.718H6.775l-0.859-1.381c-0.189-0.301-0.371-0.609-0.504-0.905l-0.014,0.003
				c0.021,0.344,0.026,0.67,0.026,1.123v1.16H5.095z"/>
			<path d="M8.395,18.829H7.569V18.53h2.009v0.299H8.749v2.419H8.395V18.829z"/>
			<path d="M10.016,18.568c0.178-0.033,0.434-0.057,0.671-0.057c0.376,0,0.622,0.072,0.788,0.221
				c0.133,0.121,0.213,0.307,0.213,0.521c0,0.353-0.227,0.59-0.508,0.688v0.01c0.205,0.073,0.33,0.267,0.395,0.551
				c0.088,0.376,0.153,0.639,0.209,0.745h-0.361c-0.046-0.081-0.104-0.311-0.18-0.649c-0.078-0.375-0.228-0.517-0.546-0.528h-0.33
				v1.178h-0.351V18.568z M10.366,19.805h0.356c0.377,0,0.613-0.207,0.613-0.517c0-0.351-0.253-0.504-0.625-0.504
				c-0.17,0-0.285,0.013-0.345,0.028V19.805z"/>
			<path d="M14.648,19.861c0,0.932-0.566,1.429-1.262,1.429c-0.719,0-1.22-0.559-1.22-1.382c0-0.861,0.532-1.425,1.258-1.425
				C14.17,18.483,14.648,19.051,14.648,19.861z M12.538,19.9c0,0.585,0.314,1.105,0.87,1.105c0.557,0,0.871-0.512,0.871-1.129
				c0-0.543-0.283-1.107-0.866-1.107C12.828,18.77,12.538,19.309,12.538,19.9z"/>
			<path d="M16.58,18.53v2.718h-0.357V18.53H16.58z"/>
			<path d="M17.323,21.248V18.53h0.388l0.865,1.375c0.197,0.318,0.358,0.603,0.484,0.882l0.012-0.004
				c-0.031-0.361-0.039-0.693-0.039-1.115V18.53h0.33v2.718h-0.355l-0.862-1.381c-0.189-0.301-0.368-0.609-0.505-0.905l-0.014,0.003
				c0.023,0.344,0.027,0.67,0.027,1.123v1.16H17.323z"/>
			<path d="M20.625,18.829h-0.826V18.53h2.012v0.299h-0.832v2.419h-0.354V18.829z"/>
			<path d="M23.646,19.974h-1.051v0.979h1.177v0.295h-1.53V18.53h1.47v0.294h-1.116v0.859h1.051V19.974z"/>
			<path d="M26.433,21.124c-0.157,0.062-0.47,0.153-0.837,0.153c-0.411,0-0.75-0.107-1.016-0.362
				c-0.234-0.227-0.378-0.585-0.378-1.01c0-0.811,0.56-1.403,1.472-1.403c0.312,0,0.562,0.07,0.679,0.124l-0.088,0.29
				c-0.146-0.068-0.327-0.119-0.602-0.119c-0.661,0-1.093,0.41-1.093,1.094c0,0.688,0.412,1.094,1.049,1.094
				c0.23,0,0.389-0.031,0.467-0.072v-0.81h-0.545v-0.284h0.892V21.124z"/>
			<path d="M27.1,18.568c0.178-0.033,0.436-0.057,0.671-0.057c0.376,0,0.622,0.072,0.788,0.221c0.132,0.121,0.212,0.307,0.212,0.521
				c0,0.353-0.226,0.59-0.505,0.688v0.01c0.202,0.073,0.328,0.267,0.392,0.551c0.091,0.376,0.153,0.639,0.21,0.745h-0.361
				c-0.045-0.081-0.104-0.311-0.178-0.649c-0.08-0.375-0.229-0.517-0.547-0.528h-0.332v1.178H27.1V18.568z M27.449,19.805h0.359
				c0.376,0,0.613-0.207,0.613-0.517c0-0.351-0.254-0.504-0.625-0.504c-0.168,0-0.287,0.013-0.348,0.028V19.805z"/>
			<path d="M29.859,20.393l-0.281,0.855h-0.362l0.927-2.718h0.418l0.928,2.718h-0.376l-0.29-0.855H29.859z M30.754,20.119
				l-0.27-0.781c-0.061-0.178-0.101-0.34-0.142-0.498h-0.007c-0.041,0.158-0.082,0.327-0.139,0.494l-0.266,0.785H30.754z"/>
			<path d="M32.019,18.572c0.218-0.037,0.47-0.061,0.747-0.061c0.504,0,0.863,0.121,1.101,0.338
				c0.245,0.221,0.386,0.535,0.386,0.975c0,0.443-0.141,0.807-0.389,1.055c-0.259,0.256-0.678,0.392-1.205,0.392
				c-0.254,0-0.461-0.013-0.64-0.032V18.572z M32.371,20.974c0.091,0.011,0.218,0.015,0.354,0.015c0.755,0,1.158-0.418,1.158-1.152
				c0.004-0.639-0.359-1.045-1.101-1.045c-0.181,0-0.319,0.016-0.411,0.033V20.974z"/>
			<path d="M37.158,19.861c0,0.932-0.566,1.429-1.261,1.429c-0.722,0-1.221-0.559-1.221-1.382c0-0.861,0.532-1.425,1.259-1.425
				C36.68,18.483,37.158,19.051,37.158,19.861z M35.049,19.9c0,0.585,0.314,1.105,0.87,1.105c0.558,0,0.87-0.512,0.87-1.129
				c0-0.543-0.281-1.107-0.866-1.107C35.34,18.77,35.049,19.309,35.049,19.9z"/>
			<path d="M38.736,18.572c0.214-0.037,0.469-0.061,0.746-0.061c0.503,0,0.863,0.121,1.101,0.338
				c0.245,0.221,0.387,0.535,0.387,0.975c0,0.443-0.142,0.807-0.393,1.055c-0.257,0.256-0.676,0.392-1.202,0.392
				c-0.256,0-0.463-0.013-0.639-0.032V18.572z M39.086,20.974c0.09,0.011,0.219,0.015,0.355,0.015c0.753,0,1.156-0.418,1.156-1.152
				c0.006-0.639-0.357-1.045-1.098-1.045c-0.184,0-0.321,0.016-0.414,0.033V20.974z"/>
			<path d="M42.957,19.974h-1.05v0.979h1.175v0.295H41.55V18.53h1.47v0.294h-1.112v0.859h1.05V19.974z"/>
			<path d="M0.818,25.231l-0.281,0.854H0.175l0.927-2.718H1.52l0.928,2.718H2.072l-0.291-0.854H0.818z M1.713,24.956l-0.27-0.78
				c-0.061-0.18-0.102-0.34-0.141-0.496H1.295c-0.042,0.156-0.08,0.325-0.136,0.492l-0.267,0.784H1.713z"/>
			<path d="M2.846,23.401c0.17-0.03,0.393-0.053,0.674-0.053c0.347,0,0.602,0.079,0.764,0.225c0.143,0.129,0.234,0.327,0.234,0.567
				c0,0.247-0.07,0.44-0.208,0.58c-0.188,0.201-0.487,0.3-0.831,0.3c-0.104,0-0.2-0.004-0.281-0.024v1.09H2.846V23.401z
				 M3.197,24.709c0.076,0.022,0.175,0.031,0.291,0.031c0.423,0,0.68-0.21,0.68-0.58c0-0.361-0.257-0.531-0.641-0.531
				c-0.152,0-0.268,0.011-0.33,0.026V24.709z"/>
			<path d="M4.99,23.404c0.18-0.033,0.435-0.056,0.675-0.056c0.374,0,0.619,0.073,0.784,0.221c0.135,0.122,0.214,0.308,0.214,0.521
				c0,0.354-0.224,0.594-0.507,0.689v0.014c0.204,0.07,0.33,0.264,0.395,0.548c0.09,0.376,0.154,0.641,0.209,0.745h-0.36
				c-0.046-0.083-0.106-0.311-0.179-0.65c-0.08-0.373-0.229-0.514-0.55-0.526H5.342v1.177H4.99V23.404z M5.342,24.642h0.359
				c0.374,0,0.613-0.204,0.613-0.515c0-0.351-0.256-0.504-0.625-0.504c-0.171,0-0.287,0.012-0.348,0.028V24.642z"/>
			<path d="M8.562,24.812H7.512v0.979h1.176v0.295H7.156v-2.718h1.471v0.294H7.512v0.859h1.051V24.812z"/>
			<path d="M9.145,26.086v-2.718h0.385l0.868,1.376c0.196,0.318,0.358,0.604,0.483,0.88l0.012-0.003
				c-0.029-0.362-0.04-0.693-0.04-1.117v-1.136h0.33v2.718h-0.356l-0.859-1.381c-0.189-0.301-0.371-0.611-0.506-0.906l-0.012,0.004
				c0.021,0.344,0.026,0.67,0.026,1.121v1.162H9.145z"/>
			<path d="M11.797,23.41c0.213-0.039,0.467-0.062,0.746-0.062c0.502,0,0.861,0.123,1.098,0.339
				c0.246,0.222,0.387,0.535,0.387,0.975c0,0.443-0.141,0.805-0.389,1.055c-0.258,0.254-0.678,0.393-1.205,0.393
				c-0.256,0-0.46-0.012-0.637-0.031V23.41z M12.146,25.811c0.088,0.014,0.22,0.016,0.355,0.016c0.753,0,1.156-0.418,1.156-1.154
				c0.004-0.639-0.36-1.043-1.1-1.043c-0.181,0-0.319,0.014-0.412,0.033V25.811z"/>
			<path d="M14.832,23.368v2.718h-0.355v-2.718H14.832z"/>
			<path d="M15.258,25.881l1.506-2.207v-0.012h-1.377v-0.294h1.834v0.214l-1.499,2.196v0.013h1.521v0.295h-1.984V25.881z"/>
			<path d="M18.113,25.231l-0.282,0.854h-0.362l0.928-2.718h0.418l0.927,2.718h-0.376l-0.289-0.854H18.113z M19.008,24.956
				l-0.271-0.78c-0.06-0.18-0.1-0.34-0.142-0.496h-0.008c-0.039,0.156-0.08,0.325-0.135,0.492l-0.268,0.784H19.008z"/>
			<path d="M22.15,25.965c-0.156,0.06-0.471,0.148-0.837,0.148c-0.411,0-0.75-0.104-1.017-0.359
				c-0.233-0.224-0.377-0.587-0.377-1.01c0-0.812,0.561-1.404,1.469-1.404c0.315,0,0.564,0.07,0.682,0.127l-0.089,0.285
				c-0.146-0.068-0.327-0.117-0.599-0.117c-0.663,0-1.092,0.412-1.092,1.094c0,0.688,0.41,1.096,1.047,1.096
				c0.23,0,0.387-0.033,0.468-0.076v-0.807h-0.55v-0.283h0.895V25.965z"/>
			<path d="M24.086,24.812h-1.051v0.979h1.176v0.295H22.68v-2.718h1.471v0.294h-1.115v0.859h1.051V24.812z"/>
			<path d="M26.956,24.893c-0.021-0.38-0.044-0.84-0.044-1.172h-0.01c-0.096,0.312-0.203,0.654-0.342,1.031l-0.48,1.316h-0.264
				l-0.443-1.293c-0.128-0.388-0.234-0.734-0.312-1.055h-0.007c-0.009,0.336-0.027,0.787-0.053,1.201l-0.073,1.164h-0.334
				l0.189-2.718h0.447l0.464,1.315c0.113,0.333,0.202,0.631,0.275,0.914h0.008c0.07-0.274,0.168-0.573,0.287-0.914l0.484-1.315
				h0.449l0.168,2.718H27.02L26.956,24.893z"/>
			<path d="M30.166,24.812h-1.053v0.979h1.177v0.295h-1.532v-2.718h1.471v0.294h-1.115v0.859h1.053V24.812z"/>
			<path d="M33.035,24.893c-0.021-0.38-0.045-0.84-0.045-1.172h-0.009c-0.095,0.312-0.204,0.654-0.341,1.031l-0.481,1.316h-0.265
				l-0.443-1.293c-0.131-0.388-0.233-0.734-0.309-1.055h-0.01c-0.008,0.336-0.027,0.787-0.053,1.201l-0.072,1.164h-0.333
				l0.188-2.718h0.447l0.463,1.315c0.111,0.333,0.203,0.631,0.274,0.914h0.007c0.074-0.274,0.172-0.573,0.292-0.914l0.482-1.315
				h0.448l0.17,2.718H33.1L33.035,24.893z"/>
			<path d="M34.842,23.404c0.178-0.033,0.436-0.056,0.674-0.056c0.375,0,0.619,0.073,0.785,0.221
				c0.135,0.122,0.214,0.308,0.214,0.521c0,0.354-0.227,0.594-0.508,0.689v0.014c0.204,0.07,0.33,0.264,0.394,0.548
				c0.092,0.376,0.154,0.641,0.209,0.745h-0.361c-0.045-0.083-0.104-0.311-0.176-0.65c-0.082-0.373-0.23-0.514-0.549-0.526h-0.33
				v1.177h-0.352V23.404z M35.193,24.642h0.357c0.377,0,0.613-0.204,0.613-0.515c0-0.351-0.256-0.504-0.624-0.504
				c-0.171,0-0.287,0.012-0.347,0.028V24.642z"/>
			<path d="M38.412,24.812h-1.05v0.979h1.177v0.295h-1.531v-2.718h1.469v0.294h-1.114v0.859h1.05V24.812z"/>
			<path d="M38.994,23.41c0.213-0.039,0.467-0.062,0.745-0.062c0.503,0,0.864,0.123,1.101,0.339
				c0.246,0.222,0.387,0.535,0.387,0.975c0,0.443-0.141,0.805-0.391,1.055c-0.259,0.254-0.678,0.393-1.205,0.393
				c-0.255,0-0.459-0.012-0.637-0.031V23.41z M39.346,25.811c0.088,0.014,0.215,0.016,0.355,0.016c0.75,0,1.153-0.418,1.153-1.154
				c0.005-0.639-0.357-1.043-1.099-1.043c-0.182,0-0.318,0.014-0.41,0.033V25.811z"/>
			<path d="M43.082,24.812h-1.055v0.979h1.178v0.295h-1.529v-2.718h1.471v0.294h-1.119v0.859h1.055V24.812z"/>
		</g>
	</g>
</g>
</svg>
