<?xml version="1.0" encoding="utf-8"?>
<!-- Generator: Adobe Illustrator 16.0.0, SVG Export Plug-In . SVG Version: 6.00 Build 0)  -->
<!DOCTYPE svg PUBLIC "-//W3C//DTD SVG 1.1//EN" "http://www.w3.org/Graphics/SVG/1.1/DTD/svg11.dtd">
<svg version="1.1" id="Layer_1" xmlns="http://www.w3.org/2000/svg" xmlns:xlink="http://www.w3.org/1999/xlink" x="0px" y="0px"
	 width="390.355px" height="266.706px" viewBox="4.823 -42.944 390.355 266.706"
	 enable-background="new 4.823 -42.944 390.355 266.706" xml:space="preserve">
<path d="M118.063,13.527c0,5.403-1.21,9.517-3.63,12.339c-2.582,2.984-6.452,4.437-11.534,4.437h-4.758v25.97h-2.823V27.479h7.582
	c8.388,0,12.26-4.355,12.26-13.952c0-9.438-3.871-13.873-12.26-13.873h-7.743h-1.774h-2.823V-3.17H102.9
	c5.082,0,8.953,1.452,11.534,4.436C116.853,4.008,118.063,8.121,118.063,13.527z M93.382,56.272h-2.823V1.588h2.823V56.272z
	 M102.899,25.542h-7.582V1.588h7.582c3.629,0,6.291,0.887,7.904,2.742c1.693,1.854,2.5,4.92,2.5,9.195
	C113.304,21.994,110.239,25.542,102.899,25.542z M98.141,22.72h4.758c4.194,0,5.323-1.29,5.727-1.855
	c1.21-1.371,1.774-3.79,1.774-7.338c0-7.662-2.581-9.114-7.5-9.114h-4.758V22.72z"/>
<path d="M149.112,38.85v17.583h-2.903V38.85c0-3.952-1.129-7.098-3.469-9.437c-0.968-0.886-2.097-1.612-3.388-2.177
	c4.517-1.694,6.775-6.129,6.775-13.308c0-4.758-0.968-8.307-2.903-10.565c-2.016-2.34-5.082-3.469-9.356-3.469h-8.549h-0.969h-2.823
	v-2.903h12.34c5.082,0,8.953,1.533,11.534,4.518c2.339,2.741,3.549,6.855,3.549,12.42c0,5.484-1.21,9.679-3.549,12.502
	c-0.242,0.241-0.484,0.563-0.807,0.806C147.499,30.059,149.112,33.931,149.112,38.85z M124.351,56.433h-2.823V1.749h2.823V56.433z
	 M132.9,26.188h-6.614V1.749h7.582c3.629,0,6.291,0.968,7.904,2.823c1.614,1.936,2.419,5.081,2.419,9.355
	c0,8.711-2.983,12.26-10.324,12.26H132.9z M141.45,56.433V38.85c0-5.242-2.5-7.822-7.582-7.822h-3.791h-0.968v25.405h-2.823V28.124
	h6.614h0.967c6.694,0,10.485,3.871,10.485,10.727v17.583L141.45,56.433L141.45,56.433z M130.078,23.365h3.791
	c4.113,0,5.324-1.289,5.727-1.854c1.21-1.531,1.774-4.031,1.774-7.581c0-7.985-2.582-9.275-7.501-9.275h-4.759v18.712
	L130.078,23.365L130.078,23.365z"/>
<path d="M181.292,13.687v25.648c0,5.322-1.128,9.355-3.386,12.178c-1.694,2.179-4.92,4.759-10.727,4.759
	c-5.807,0-9.034-2.58-10.727-4.759c-2.259-2.822-3.388-6.855-3.388-12.178V13.687c0-5.242,1.129-9.274,3.388-12.178
	c1.694-2.178,4.92-4.679,10.727-4.679c5.807,0,9.034,2.501,10.727,4.679C180.162,4.412,181.292,8.445,181.292,13.687z
	 M178.469,13.687c0-4.597-0.968-8.064-2.823-10.404c-1.935-2.419-4.758-3.629-8.468-3.629c-3.71,0-6.533,1.21-8.469,3.629
	c-1.854,2.339-2.823,5.807-2.823,10.404v25.648c0,4.597,0.968,8.064,2.823,10.404c2.017,2.5,4.84,3.71,8.469,3.71
	c3.628,0,6.452-1.21,8.468-3.71c1.855-2.34,2.823-5.808,2.823-10.404V13.687z M174.113,4.492c1.614,1.935,2.42,5,2.42,9.194v25.648
	c0,8.146-3.146,12.178-9.355,12.178c-6.21,0-9.356-4.032-9.356-12.178V13.687c0-4.193,0.807-7.259,2.419-9.194
	c1.452-1.936,3.791-2.904,6.937-2.904C170.323,1.588,172.661,2.557,174.113,4.492z M173.71,13.687c0-9.274-4.275-9.274-6.533-9.274
	c-2.259,0-6.533,0-6.533,9.274v25.648c0,9.355,4.275,9.355,6.533,9.355s6.533,0,6.533-9.355V13.687z"/>
<path d="M211.536,17.72v-3.792c0-4.597-0.887-8.146-2.742-10.484c-1.936-2.339-4.759-3.549-8.469-3.549
	c-3.71,0-6.534,1.21-8.469,3.549c-1.854,2.5-2.823,5.969-2.823,10.484v25.567c0,11.695,6.129,14.114,11.292,14.114
	c5.081,0,11.211-2.419,11.211-14.114v-3.871h2.904v3.871c0,5.243-1.13,9.274-3.469,12.179c-1.694,2.178-4.839,4.759-10.646,4.759
	s-9.034-2.581-10.727-4.759c-2.259-2.822-3.388-6.855-3.388-12.179V13.928c0-5.242,1.129-9.355,3.388-12.179
	c1.693-2.177,4.919-4.759,10.727-4.759s8.951,2.582,10.646,4.759c2.339,2.904,3.469,6.937,3.469,12.179v3.792H211.536z
	 M209.68,13.928v3.792h-2.903v-3.792c0-9.274-4.194-9.274-6.452-9.274c-2.258,0-6.534,0-6.534,9.274v25.567
	c0,3.468,0.646,5.968,1.855,7.501c0.564,0.887,1.774,1.855,4.678,1.855c2.904,0,4.032-0.969,4.678-1.855
	c1.21-1.533,1.775-4.033,1.775-7.501v-3.871h2.903v3.871c0,8.146-3.146,12.179-9.355,12.179c-6.211,0-9.356-4.032-9.356-12.179
	V13.928c0-8.146,3.146-12.179,9.356-12.179C206.535,1.749,209.68,5.782,209.68,13.928z"/>
<path d="M222.019,53.611h21.776v2.823h-24.598V-3.009h24.598v2.903h-21.776v25.89v1.855V53.611z M243.795,4.654h-17.019v18.229
	h17.019v2.902h-19.84V1.749h19.84V4.654z M243.795,30.543h-17.019v18.309h17.019v2.822h-19.84V27.64h19.84V30.543z"/>
<path d="M249.197,14.009c0-10.081,5.728-17.018,14.196-17.018c5.807,0,9.032,2.5,10.726,4.678c2.34,2.984,3.468,7.099,3.468,12.34
	V17.8h-2.902v-3.791c0-4.758-0.968-8.226-2.823-10.484c-1.855-2.42-4.679-3.63-8.469-3.63c-3.63,0-6.533,1.371-8.549,4.194
	c-1.855,2.5-2.823,5.808-2.823,9.92c0,9.355,7.258,12.422,10.323,13.712l1.371,0.645c2.742,1.048,9.114,3.63,9.114,11.614
	c0,7.421-3.549,11.695-9.437,11.695c-3.146,0-5.484-0.968-7.018-2.822c-1.613-2.017-2.42-5.082-2.42-9.276v-3.79h2.823v3.79
	c0,3.469,0.646,5.969,1.855,7.501c0.565,0.726,1.774,1.774,4.759,1.774c5.807,0,6.532-5.565,6.532-8.873
	c0-5.565-3.791-7.42-7.259-8.952l-1.452-0.646c-1.693-0.727-4.596-1.936-7.177-4.437C250.811,22.8,249.197,18.848,249.197,14.009z
	 M277.587,39.98c0,4.597-1.128,8.388-3.386,11.372c-2.662,3.388-6.211,5.081-10.808,5.081c-4.759,0-8.309-1.532-10.728-4.597
	c-2.339-2.823-3.469-6.937-3.469-12.26v-3.79h2.824v3.79c0,4.597,0.968,8.146,2.822,10.485c1.936,2.339,4.758,3.549,8.55,3.549
	c3.549,0,6.532-1.371,8.468-4.033c1.855-2.338,2.824-5.727,2.824-9.598c0-9.274-7.422-12.34-10.243-13.388l-1.291-0.564
	c-2.983-1.29-9.194-4.114-9.194-12.018c0-5.564,2.5-12.259,9.437-12.259c3.146,0,5.483,0.968,7.017,2.903
	c1.611,2.018,2.42,5.162,2.42,9.356v3.791h-2.904v-3.791c0-9.356-4.274-9.356-6.532-9.356c-6.13,0-6.614,7.098-6.614,9.356
	c0,5.484,3.71,7.903,7.5,9.355l1.291,0.565c1.531,0.645,4.436,1.693,7.017,4.192C275.895,31.189,277.587,35.141,277.587,39.98z"/>
<path d="M281.215,14.009c0-10.081,5.729-17.018,14.195-17.018c5.808,0,9.034,2.5,10.729,4.678c2.338,2.984,3.467,7.099,3.467,12.34
	V17.8h-2.902v-3.791c0-4.758-0.969-8.226-2.824-10.484c-1.854-2.42-4.678-3.63-8.469-3.63c-3.63,0-6.532,1.371-8.549,4.194
	c-1.855,2.5-2.823,5.808-2.823,9.92c0,9.355,7.259,12.422,10.323,13.712l1.37,0.645c2.743,1.048,9.115,3.63,9.115,11.614
	c0,7.421-3.549,11.695-9.437,11.695c-3.146,0-5.484-0.968-7.018-2.822c-1.611-2.017-2.42-5.082-2.42-9.276v-3.79h2.824v3.79
	c0,3.469,0.645,5.969,1.855,7.501c0.564,0.726,1.773,1.774,4.758,1.774c5.807,0,6.533-5.565,6.533-8.873
	c0-5.565-3.792-7.42-7.259-8.952l-1.452-0.646c-1.693-0.727-4.598-1.936-7.178-4.437C282.828,22.8,281.215,18.848,281.215,14.009z
	 M309.606,39.98c0,4.597-1.129,8.388-3.388,11.372c-2.661,3.388-6.209,5.081-10.807,5.081c-4.759,0-8.308-1.532-10.727-4.597
	c-2.34-2.823-3.469-6.937-3.469-12.26v-3.79h2.823v3.79c0,4.597,0.968,8.146,2.823,10.485c1.935,2.339,4.758,3.549,8.549,3.549
	c3.549,0,6.533-1.371,8.469-4.033c1.855-2.338,2.824-5.727,2.824-9.598c0-9.274-7.422-12.34-10.245-13.388l-1.29-0.564
	c-2.982-1.29-9.195-4.114-9.195-12.018c0-5.564,2.5-12.259,9.438-12.259c3.145,0,5.484,0.968,7.017,2.903
	c1.613,2.018,2.42,5.162,2.42,9.356v3.791h-2.903v-3.791c0-9.356-4.275-9.356-6.533-9.356c-6.13,0-6.614,7.098-6.614,9.356
	c0,5.484,3.71,7.903,7.5,9.355l1.291,0.565c1.532,0.645,4.437,1.693,7.018,4.192C307.912,31.189,309.606,35.141,309.606,39.98z"/>
<path d="M341.462,13.687v25.648c0,5.322-1.129,9.355-3.386,12.178c-1.695,2.179-4.921,4.759-10.728,4.759s-9.033-2.58-10.728-4.759
	c-2.259-2.822-3.387-6.855-3.387-12.178V13.687c0-5.242,1.128-9.274,3.387-12.178c1.694-2.178,4.921-4.679,10.728-4.679
	s9.032,2.501,10.728,4.679C340.333,4.412,341.462,8.445,341.462,13.687z M338.639,13.687c0-4.597-0.967-8.064-2.822-10.404
	c-1.936-2.419-4.758-3.629-8.469-3.629s-6.533,1.21-8.469,3.629c-1.855,2.339-2.823,5.807-2.823,10.404v25.648
	c0,4.597,0.968,8.064,2.823,10.404c2.016,2.5,4.839,3.71,8.469,3.71s6.452-1.21,8.469-3.71c1.855-2.34,2.822-5.808,2.822-10.404
	V13.687z M334.284,4.492c1.613,1.935,2.419,5,2.419,9.194v25.648c0,8.146-3.146,12.178-9.354,12.178s-9.356-4.032-9.356-12.178
	V13.687c0-4.193,0.808-7.259,2.42-9.194c1.452-1.936,3.791-2.904,6.937-2.904S332.833,2.557,334.284,4.492z M333.881,13.687
	c0-9.274-4.274-9.274-6.532-9.274s-6.533,0-6.533,9.274v25.648c0,9.355,4.275,9.355,6.533,9.355s6.532,0,6.532-9.355V13.687z"/>
<path d="M346.381,14.009c0-10.081,5.727-17.018,14.194-17.018c5.807,0,9.034,2.5,10.728,4.678c2.339,2.984,3.467,7.099,3.467,12.34
	V17.8h-2.903v-3.791c0-4.758-0.967-8.226-2.822-10.484c-1.854-2.42-4.679-3.63-8.47-3.63c-3.629,0-6.532,1.371-8.548,4.194
	c-1.855,2.5-2.823,5.808-2.823,9.92c0,9.355,7.258,12.422,10.323,13.712l1.37,0.645c2.743,1.048,9.114,3.63,9.114,11.614
	c0,7.421-3.548,11.695-9.437,11.695c-3.145,0-5.483-0.968-7.017-2.822c-1.612-2.017-2.42-5.082-2.42-9.276v-3.79h2.823v3.79
	c0,3.469,0.646,5.969,1.855,7.501c0.565,0.726,1.775,1.774,4.758,1.774c5.807,0,6.533-5.565,6.533-8.873
	c0-5.565-3.791-7.42-7.258-8.952l-1.453-0.646c-1.693-0.727-4.597-1.936-7.178-4.437C347.993,22.8,346.381,18.848,346.381,14.009z
	 M374.771,39.98c0,4.597-1.129,8.388-3.387,11.372c-2.661,3.388-6.211,5.081-10.808,5.081c-4.758,0-8.308-1.532-10.727-4.597
	c-2.339-2.823-3.468-6.937-3.468-12.26v-3.79h2.823v3.79c0,4.597,0.968,8.146,2.822,10.485c1.936,2.339,4.758,3.549,8.549,3.549
	c3.55,0,6.533-1.371,8.469-4.033c1.855-2.338,2.823-5.727,2.823-9.598c0-9.274-7.42-12.34-10.243-13.388l-1.291-0.564
	c-2.983-1.29-9.194-4.114-9.194-12.018c0-5.564,2.501-12.259,9.437-12.259c3.146,0,5.484,0.968,7.017,2.903
	c1.613,2.018,2.42,5.162,2.42,9.356v3.791h-2.903v-3.791c0-9.356-4.274-9.356-6.533-9.356c-6.129,0-6.613,7.098-6.613,9.356
	c0,5.484,3.71,7.903,7.5,9.355l1.29,0.565c1.532,0.645,4.437,1.693,7.018,4.192C373.076,31.189,374.771,35.141,374.771,39.98z"/>
<path d="M93.382,136.766h21.777v2.823h-24.6V80.148h24.6v2.903H93.382v25.89v1.855V136.766z M115.159,87.809H98.141v18.229h17.018
	v2.904H95.317V84.906h19.841V87.809L115.159,87.809z M115.159,113.7H98.141v18.308h17.018v2.822H95.317v-24.034h19.841V113.7
	L115.159,113.7z"/>
<path d="M168.228,96.682c0,5.403-1.21,9.518-3.629,12.339c-2.582,2.984-6.452,4.437-11.534,4.437h-4.758v25.97h-2.823v-28.793h7.582
	c8.388,0,12.26-4.355,12.26-13.952c0-9.438-3.872-13.874-12.26-13.874h-7.743h-1.774h-2.823v-2.822h12.339
	c5.082,0,8.953,1.452,11.534,4.437C167.018,87.164,168.228,91.278,168.228,96.682z M143.547,139.428h-2.823V84.744h2.823V139.428z
	 M153.064,108.698h-7.582V84.744h7.582c3.629,0,6.291,0.887,7.904,2.742c1.693,1.854,2.5,4.92,2.5,9.195
	C163.469,105.151,160.404,108.698,153.064,108.698z M148.306,105.875h4.758c4.194,0,5.324-1.289,5.727-1.855
	c1.21-1.37,1.774-3.79,1.774-7.338c0-7.663-2.581-9.115-7.501-9.115h-4.758V105.875z"/>
<path d="M199.276,122.007v17.583h-2.902v-17.583c0-3.952-1.129-7.098-3.469-9.438c-0.968-0.887-2.097-1.612-3.388-2.177
	c4.517-1.694,6.775-6.13,6.775-13.308c0-4.759-0.968-8.308-2.903-10.566c-2.016-2.34-5.082-3.469-9.356-3.469h-8.549h-0.968h-2.823
	v-2.903h12.34c5.082,0,8.953,1.532,11.534,4.517c2.338,2.741,3.549,6.855,3.549,12.422c0,5.483-1.21,9.678-3.549,12.501
	c-0.242,0.241-0.484,0.563-0.807,0.807C197.664,113.215,199.276,117.086,199.276,122.007z M174.517,139.589h-2.823V84.906h2.823
	V139.589z M183.065,109.344h-6.613V84.906h7.582c3.629,0,6.291,0.969,7.904,2.823c1.613,1.935,2.419,5.08,2.419,9.356
	c0,8.71-2.983,12.259-10.324,12.259H183.065z M191.615,139.589v-17.583c0-5.243-2.5-7.824-7.582-7.824h-3.791h-0.968v25.406h-2.823
	v-28.31h6.613h0.968c6.694,0,10.485,3.87,10.485,10.727v17.583L191.615,139.589L191.615,139.589z M180.243,106.521h3.791
	c4.113,0,5.324-1.291,5.727-1.854c1.21-1.532,1.774-4.032,1.774-7.581c0-7.985-2.582-9.276-7.501-9.276h-4.759v18.712H180.243z"/>
<path d="M231.457,96.842v25.648c0,5.323-1.131,9.355-3.389,12.179c-1.692,2.177-4.919,4.758-10.725,4.758
	c-5.808,0-9.033-2.581-10.728-4.758c-2.259-2.823-3.387-6.855-3.387-12.179V96.842c0-5.242,1.128-9.274,3.387-12.179
	c1.695-2.177,4.92-4.678,10.728-4.678c5.806,0,9.033,2.501,10.725,4.678C230.326,87.568,231.457,91.6,231.457,96.842z
	 M228.633,96.842c0-4.596-0.967-8.064-2.822-10.403c-1.937-2.42-4.758-3.63-8.468-3.63c-3.71,0-6.534,1.21-8.47,3.63
	c-1.855,2.339-2.823,5.808-2.823,10.403v25.648c0,4.597,0.968,8.065,2.823,10.404c2.017,2.5,4.839,3.71,8.47,3.71
	c3.629,0,6.452-1.211,8.468-3.71c1.855-2.339,2.822-5.808,2.822-10.404V96.842z M224.277,87.648c1.613,1.936,2.42,5.001,2.42,9.194
	v25.648c0,8.146-3.146,12.179-9.355,12.179c-6.211,0-9.357-4.033-9.357-12.179V96.842c0-4.193,0.809-7.258,2.42-9.194
	c1.452-1.937,3.791-2.903,6.937-2.903C220.487,84.744,222.825,85.711,224.277,87.648z M223.873,96.842
	c0-9.274-4.274-9.274-6.531-9.274c-2.259,0-6.534,0-6.534,9.274v25.648c0,9.355,4.275,9.355,6.534,9.355
	c2.258,0,6.531,0,6.531-9.355V96.842z"/>
<path d="M263.312,97.406v25.003c0,5.403-1.209,9.598-3.549,12.42c-2.58,3.146-6.451,4.759-11.533,4.759h-11.856v-2.823h2.823h0.968
	h8.065c4.113,0,7.178-1.21,9.355-3.709c1.936-2.421,2.904-5.97,2.904-10.646V97.406c0-4.678-0.969-8.226-2.904-10.646
	c-2.097-2.5-5.242-3.709-9.355-3.709h-8.065h-0.968h-2.823v-2.903h11.856c5.08,0,8.953,1.612,11.533,4.839
	C262.104,87.809,263.312,92.003,263.312,97.406z M239.199,134.83h-2.824V84.906h2.824V134.83z M248.231,134.83h-7.098V84.906h7.098
	c3.63,0,6.29,1.049,7.823,3.064c1.694,2.018,2.501,5.163,2.501,9.437v25.003c0,4.274-0.807,7.421-2.501,9.437
	C254.441,133.863,251.859,134.83,248.231,134.83z M243.957,132.008h4.274c3.79,0,7.421-0.727,7.421-9.598V97.406
	c0-8.871-3.631-9.598-7.421-9.598h-4.274V132.008z"/>
<path d="M295.412,80.148v43.634c0,4.92-1.049,8.71-3.227,11.372c-1.613,2.177-4.678,4.436-10.082,4.436
	c-5.403,0-8.468-2.259-10.081-4.436c-2.178-2.662-3.228-6.452-3.228-11.372V80.148h2.824v43.634c0,4.275,0.887,7.42,2.661,9.598
	c1.774,2.258,4.355,3.387,7.823,3.387c3.469,0,6.13-1.13,7.824-3.387c1.774-2.178,2.661-5.323,2.661-9.598V80.148H295.412z
	 M276.378,80.148v43.634c0,8.227,3.63,8.227,5.727,8.227s5.728,0,5.728-8.227V80.148h2.822v43.634c0,3.79-0.727,6.613-2.178,8.469
	c-1.371,1.693-3.469,2.581-6.372,2.581c-2.823,0-5-0.887-6.372-2.581c-1.451-1.855-2.178-4.679-2.178-8.469V80.148H276.378z"/>
<path d="M314.929,83.051h-14.275v-2.903h30.407v2.903h-14.276H314.929z M314.929,139.589h-2.903v-51.78h-11.372v-2.903h14.275
	V139.589z M316.784,84.906h14.276v2.903h-11.372v51.78h-2.903v-2.823L316.784,84.906L316.784,84.906z"/>
<path d="M361.87,96.842v25.648c0,5.323-1.131,9.355-3.389,12.179c-1.693,2.177-4.919,4.758-10.726,4.758
	c-5.808,0-9.033-2.581-10.728-4.758c-2.259-2.823-3.387-6.855-3.387-12.179V96.842c0-5.242,1.129-9.274,3.387-12.179
	c1.694-2.177,4.92-4.678,10.728-4.678c5.807,0,9.032,2.501,10.726,4.678C360.739,87.568,361.87,91.6,361.87,96.842z M359.046,96.842
	c0-4.596-0.966-8.064-2.822-10.403c-1.937-2.42-4.758-3.63-8.468-3.63c-3.711,0-6.534,1.21-8.471,3.63
	c-1.855,2.339-2.822,5.808-2.822,10.403v25.648c0,4.597,0.967,8.065,2.822,10.404c2.018,2.5,4.84,3.71,8.471,3.71
	c3.629,0,6.451-1.211,8.468-3.71c1.856-2.339,2.822-5.808,2.822-10.404V96.842z M354.69,87.648c1.613,1.936,2.42,5.001,2.42,9.194
	v25.648c0,8.146-3.146,12.179-9.354,12.179c-6.211,0-9.357-4.033-9.357-12.179V96.842c0-4.193,0.808-7.258,2.42-9.194
	c1.451-1.937,3.791-2.903,6.938-2.903C350.9,84.744,353.238,85.711,354.69,87.648z M354.286,96.842c0-9.274-4.273-9.274-6.53-9.274
	c-2.26,0-6.534,0-6.534,9.274v25.648c0,9.355,4.274,9.355,6.534,9.355c2.258,0,6.53,0,6.53-9.355V96.842z"/>
<path d="M366.787,97.165c0-10.082,5.728-17.018,14.194-17.018c5.807,0,9.033,2.499,10.728,4.678
	c2.338,2.983,3.468,7.097,3.468,12.34v3.791h-2.904v-3.791c0-4.758-0.968-8.226-2.822-10.484c-1.856-2.42-4.678-3.63-8.47-3.63
	c-3.629,0-6.531,1.371-8.55,4.193c-1.854,2.5-2.821,5.807-2.821,9.921c0,9.355,7.259,12.421,10.322,13.711l1.372,0.645
	c2.742,1.049,9.113,3.63,9.113,11.615c0,7.421-3.549,11.694-9.437,11.694c-3.146,0-5.484-0.968-7.017-2.822
	c-1.612-2.017-2.419-5.081-2.419-9.275v-3.79h2.822v3.79c0,3.469,0.646,5.969,1.855,7.5c0.563,0.728,1.774,1.775,4.758,1.775
	c5.807,0,6.533-5.565,6.533-8.873c0-5.564-3.79-7.421-7.259-8.952l-1.451-0.645c-1.694-0.726-4.599-1.935-7.179-4.437
	C368.4,105.956,366.787,102.005,366.787,97.165z M395.178,123.136c0,4.598-1.13,8.389-3.389,11.372
	c-2.659,3.387-6.209,5.081-10.807,5.081c-4.758,0-8.307-1.533-10.727-4.598c-2.339-2.822-3.468-6.936-3.468-12.26v-3.79h2.823v3.79
	c0,4.598,0.967,8.146,2.821,10.485c1.937,2.339,4.759,3.549,8.55,3.549c3.549,0,6.533-1.371,8.47-4.032
	c1.854-2.339,2.822-5.728,2.822-9.598c0-9.274-7.421-12.34-10.243-13.39l-1.29-0.562c-2.984-1.291-9.195-4.114-9.195-12.018
	c0-5.565,2.5-12.26,9.437-12.26c3.146,0,5.484,0.968,7.017,2.903c1.613,2.018,2.42,5.162,2.42,9.356v3.791h-2.903v-3.791
	c0-9.356-4.276-9.356-6.533-9.356c-6.13,0-6.613,7.099-6.613,9.356c0,5.484,3.71,7.903,7.5,9.355l1.291,0.564
	c1.532,0.645,4.435,1.693,7.018,4.193C393.484,114.345,395.178,118.297,395.178,123.136z"/>
<path d="M115.885,184.032v-3.791c0-4.598-0.888-8.146-2.743-10.483c-1.935-2.341-4.758-3.549-8.468-3.549
	c-3.71,0-6.533,1.208-8.469,3.549c-1.854,2.499-2.823,5.968-2.823,10.483v25.566c0,11.695,6.129,14.115,11.292,14.115
	c5.081,0,11.211-2.42,11.211-14.115v-3.869h2.903v3.869c0,5.244-1.129,9.275-3.468,12.181c-1.694,2.178-4.839,4.758-10.646,4.758
	c-5.807,0-9.034-2.581-10.727-4.758c-2.259-2.823-3.388-6.856-3.388-12.181v-25.566c0-5.243,1.129-9.355,3.388-12.179
	c1.693-2.179,4.919-4.759,10.727-4.759s8.952,2.581,10.646,4.759c2.339,2.905,3.468,6.936,3.468,12.179v3.791H115.885z
	 M114.03,180.241v3.791h-2.903v-3.791c0-9.273-4.194-9.273-6.452-9.273c-2.258,0-6.533,0-6.533,9.273v25.566
	c0,3.47,0.646,5.97,1.855,7.501c0.564,0.888,1.774,1.856,4.678,1.856s4.033-0.968,4.678-1.856c1.21-1.532,1.775-4.031,1.775-7.501
	v-3.869h2.903v3.869c0,8.147-3.146,12.181-9.355,12.181s-9.356-4.033-9.356-12.181v-25.566c0-8.146,3.146-12.179,9.356-12.179
	C110.884,168.063,114.03,172.095,114.03,180.241z"/>
<path d="M151.129,205.162v17.584h-2.903v-17.584c0-3.952-1.129-7.097-3.468-9.435c-0.968-0.889-2.097-1.614-3.387-2.179
	c4.517-1.694,6.774-6.129,6.774-13.309c0-4.758-0.968-8.307-2.903-10.565c-2.017-2.339-5.082-3.467-9.356-3.467h-8.549h-0.968
	h-2.823v-2.906h12.34c5.081,0,8.953,1.533,11.534,4.517c2.338,2.744,3.548,6.856,3.548,12.421c0,5.483-1.21,9.678-3.548,12.502
	c-0.242,0.241-0.484,0.564-0.807,0.807C149.517,196.373,151.129,200.242,151.129,205.162z M126.369,222.746h-2.823v-54.684h2.823
	V222.746z M134.917,192.499h-6.614v-24.438h7.581c3.63,0,6.291,0.967,7.904,2.823c1.612,1.935,2.419,5.08,2.419,9.355
	c0,8.711-2.984,12.259-10.323,12.259H134.917z M143.468,222.746v-17.584c0-5.241-2.5-7.823-7.582-7.823h-3.791h-0.968v25.406h-2.823
	v-28.311h6.614h0.968c6.695,0,10.485,3.872,10.485,10.727v17.584L143.468,222.746L143.468,222.746z M132.095,189.677h3.791
	c4.113,0,5.323-1.289,5.727-1.854c1.21-1.535,1.774-4.034,1.774-7.583c0-7.984-2.581-9.273-7.5-9.273h-4.758v18.71H132.095
	L132.095,189.677z"/>
<path d="M160.323,163.224v59.439H157.5v-59.439H160.323L160.323,163.224z M162.258,163.224h2.823v59.439h-2.823V163.224z"/>
<path d="M192.019,163.303l13.792,59.442h-2.985l-12.985-56.054h-1.774l-12.986,56.054h-2.903l13.792-59.442h0.646h2.258h0.163h2.259
	H192.019z M181.534,203.308h14.84l4.516,19.438h-2.903l-3.872-16.535h-10.324l-3.791,16.535h-2.984L181.534,203.308z
	 M181.937,201.453l7.017-30.084l6.937,30.084H181.937z M192.341,198.55l-3.388-14.518l-3.387,14.518H192.341L192.341,198.55z"/>
<path d="M215.407,166.209h-14.275v-2.906h30.407v2.906h-14.276H215.407z M215.407,222.746h-2.903v-51.778h-11.372v-2.905h14.275
	V222.746z M217.262,168.063h14.275v2.905h-11.372v51.778h-2.903v-2.823V168.063z"/>
<path d="M241.295,163.224v59.439h-2.823v-59.439H241.295L241.295,163.224z M243.231,163.224h2.821v59.439h-2.821V163.224z"/>
<path d="M285.009,163.303h2.984l-14.923,59.442h-0.725h-2.178h-0.082h-2.259h-0.724l-14.762-59.442h2.823l14.114,56.298h1.613
	L285.009,163.303z M282.991,163.303l-12.904,51.701l-12.904-51.701h2.983l9.921,39.924l10.083-39.924H282.991z"/>
<path d="M317.753,179.999v25.647c0,5.323-1.13,9.356-3.388,12.179c-1.693,2.179-4.919,4.759-10.726,4.759
	c-5.808,0-9.033-2.581-10.728-4.759c-2.259-2.822-3.387-6.855-3.387-12.179v-25.647c0-5.244,1.129-9.275,3.387-12.18
	c1.694-2.178,4.92-4.677,10.728-4.677c5.807,0,9.032,2.499,10.726,4.677C316.623,170.724,317.753,174.755,317.753,179.999z
	 M314.93,179.999c0-4.598-0.967-8.065-2.822-10.406c-1.937-2.418-4.759-3.628-8.469-3.628s-6.533,1.21-8.471,3.628
	c-1.854,2.341-2.822,5.809-2.822,10.406v25.647c0,4.598,0.969,8.064,2.822,10.402c2.018,2.502,4.841,3.711,8.471,3.711
	c3.629,0,6.452-1.21,8.469-3.711c1.855-2.338,2.822-5.805,2.822-10.402V179.999z M310.575,170.804
	c1.613,1.938,2.42,5.002,2.42,9.195v25.648c0,8.147-3.146,12.179-9.355,12.179c-6.212,0-9.356-4.031-9.356-12.179v-25.648
	c0-4.193,0.807-7.257,2.419-9.195c1.452-1.935,3.791-2.902,6.938-2.902C306.784,167.902,309.123,168.868,310.575,170.804z
	 M310.171,179.999c0-9.275-4.274-9.275-6.531-9.275c-2.259,0-6.533,0-6.533,9.275v25.647c0,9.356,4.274,9.356,6.533,9.356
	c2.258,0,6.531,0,6.531-9.356V179.999z"/>
<path d="M322.671,180.321c0-10.081,5.728-17.018,14.195-17.018c5.807,0,9.033,2.502,10.727,4.68
	c2.339,2.984,3.469,7.098,3.469,12.339v3.79h-2.905v-3.79c0-4.759-0.967-8.226-2.822-10.485c-1.856-2.419-4.678-3.627-8.469-3.627
	c-3.629,0-6.532,1.37-8.55,4.191c-1.854,2.502-2.822,5.808-2.822,9.921c0,9.356,7.26,12.422,10.323,13.712l1.372,0.646
	c2.741,1.05,9.113,3.63,9.113,11.615c0,7.418-3.55,11.694-9.437,11.694c-3.146,0-5.484-0.968-7.018-2.823
	c-1.611-2.018-2.419-5.08-2.419-9.274V202.1h2.823v3.791c0,3.467,0.645,5.968,1.855,7.5c0.563,0.725,1.774,1.774,4.758,1.774
	c5.807,0,6.532-5.565,6.532-8.872c0-5.564-3.79-7.421-7.258-8.953l-1.451-0.646c-1.695-0.725-4.599-1.935-7.18-4.437
	C324.285,189.114,322.671,185.16,322.671,180.321z M351.062,206.293c0,4.596-1.13,8.387-3.389,11.37
	c-2.66,3.388-6.209,5.082-10.807,5.082c-4.758,0-8.307-1.534-10.727-4.598c-2.339-2.823-3.469-6.937-3.469-12.259v-3.791h2.823
	v3.791c0,4.596,0.968,8.146,2.822,10.485c1.937,2.338,4.759,3.548,8.55,3.548c3.548,0,6.532-1.371,8.469-4.033
	c1.855-2.338,2.822-5.727,2.822-9.596c0-9.276-7.42-12.341-10.243-13.391l-1.29-0.563c-2.983-1.291-9.195-4.112-9.195-12.018
	c0-5.565,2.501-12.259,9.438-12.259c3.146,0,5.484,0.967,7.017,2.905c1.612,2.014,2.42,5.161,2.42,9.354v3.79h-2.904v-3.79
	c0-9.354-4.275-9.354-6.532-9.354c-6.13,0-6.613,7.097-6.613,9.354c0,5.485,3.71,7.905,7.5,9.356l1.29,0.563
	c1.533,0.646,4.435,1.694,7.018,4.194C349.367,197.501,351.062,201.453,351.062,206.293z"/>
<polygon points="4.823,173.73 62.763,-3.313 62.763,223.762 "/>
<g>
	<path d="M91.378-35.174c0-0.896,0.158-1.788,0.473-2.677s0.777-1.687,1.386-2.394c0.609-0.707,1.354-1.277,2.236-1.711
		s1.883-0.651,3.003-0.651c1.33,0,2.471,0.301,3.423,0.903s1.659,1.386,2.121,2.352l-1.491,0.966
		c-0.224-0.476-0.494-0.875-0.809-1.197c-0.315-0.322-0.658-0.581-1.029-0.777c-0.371-0.196-0.752-0.336-1.145-0.42
		s-0.777-0.126-1.155-0.126c-0.826,0-1.558,0.171-2.194,0.515c-0.637,0.343-1.173,0.791-1.606,1.344
		c-0.435,0.553-0.76,1.176-0.977,1.869c-0.217,0.693-0.326,1.39-0.326,2.089c0,0.784,0.129,1.53,0.389,2.237
		c0.259,0.707,0.619,1.333,1.082,1.879c0.462,0.546,1.008,0.98,1.638,1.302c0.63,0.322,1.316,0.483,2.058,0.483
		c0.392,0,0.794-0.049,1.208-0.147c0.413-0.098,0.809-0.255,1.187-0.472s0.731-0.49,1.061-0.819
		c0.329-0.329,0.599-0.724,0.809-1.187l1.575,0.861c-0.238,0.56-0.57,1.054-0.998,1.48c-0.427,0.427-0.91,0.788-1.449,1.082
		c-0.539,0.294-1.11,0.518-1.711,0.672c-0.602,0.154-1.19,0.231-1.764,0.231c-1.022,0-1.96-0.224-2.814-0.672
		c-0.854-0.448-1.593-1.032-2.215-1.753c-0.624-0.721-1.106-1.54-1.449-2.457C91.549-33.287,91.378-34.222,91.378-35.174z"/>
	<path d="M109.753-27.404c-1.148,0-2.016-0.385-2.604-1.155s-0.882-1.918-0.882-3.444v-6.573h1.848v6.216
		c0,2.24,0.777,3.36,2.331,3.36c0.756,0,1.466-0.241,2.131-0.724s1.159-1.145,1.48-1.985v-6.867h1.848v8.694
		c0,0.434,0.196,0.658,0.588,0.672v1.596c-0.21,0.028-0.375,0.045-0.493,0.053c-0.119,0.007-0.235,0.01-0.347,0.01
		c-0.364,0-0.668-0.108-0.914-0.326c-0.245-0.217-0.375-0.486-0.388-0.808l-0.042-1.281c-0.49,0.826-1.134,1.459-1.932,1.9
		S110.705-27.404,109.753-27.404z"/>
	<path d="M124.789-36.959c-0.924,0.028-1.74,0.266-2.447,0.714s-1.208,1.071-1.501,1.869v6.762h-1.848v-10.962h1.722v2.541
		c0.378-0.756,0.875-1.368,1.491-1.837c0.616-0.469,1.273-0.731,1.974-0.788c0.14,0,0.259,0,0.357,0
		c0.098,0,0.182,0.007,0.252,0.021V-36.959z"/>
	<path d="M130.458-27.404c-0.882,0-1.75-0.136-2.604-0.41c-0.854-0.273-1.589-0.668-2.205-1.187l0.798-1.239
		c0.644,0.49,1.288,0.858,1.932,1.103c0.644,0.245,1.323,0.368,2.037,0.368c0.798,0,1.431-0.158,1.9-0.473s0.704-0.759,0.704-1.333
		c0-0.266-0.063-0.494-0.189-0.683s-0.315-0.354-0.567-0.494c-0.252-0.14-0.574-0.266-0.966-0.378
		c-0.392-0.112-0.847-0.231-1.365-0.357c-0.658-0.168-1.225-0.329-1.701-0.483c-0.476-0.154-0.868-0.336-1.176-0.546
		c-0.308-0.21-0.532-0.462-0.672-0.756c-0.14-0.294-0.21-0.658-0.21-1.092c0-0.546,0.108-1.032,0.326-1.459
		c0.217-0.427,0.515-0.784,0.893-1.071s0.822-0.504,1.333-0.651c0.511-0.147,1.061-0.22,1.648-0.22c0.826,0,1.596,0.133,2.31,0.399
		c0.714,0.266,1.316,0.616,1.806,1.05l-0.84,1.113c-0.462-0.406-0.98-0.71-1.554-0.914c-0.574-0.203-1.163-0.305-1.764-0.305
		c-0.672,0-1.243,0.144-1.711,0.431c-0.469,0.287-0.704,0.746-0.704,1.375c0,0.252,0.045,0.462,0.137,0.63
		c0.091,0.168,0.241,0.315,0.451,0.441s0.479,0.238,0.809,0.336c0.329,0.098,0.725,0.203,1.187,0.315
		c0.728,0.168,1.361,0.339,1.9,0.514c0.539,0.175,0.987,0.382,1.344,0.62c0.357,0.238,0.623,0.518,0.798,0.84
		c0.175,0.322,0.263,0.714,0.263,1.176c0,1.022-0.392,1.834-1.176,2.436S131.789-27.404,130.458-27.404z"/>
	<path d="M141.777-27.404c-0.826,0-1.579-0.154-2.257-0.462c-0.679-0.308-1.26-0.721-1.743-1.239
		c-0.483-0.518-0.857-1.12-1.124-1.806s-0.399-1.407-0.399-2.163c0-0.77,0.137-1.498,0.41-2.184
		c0.273-0.686,0.651-1.288,1.134-1.806c0.483-0.518,1.064-0.931,1.743-1.239c0.679-0.308,1.424-0.462,2.236-0.462
		s1.561,0.154,2.247,0.462c0.686,0.308,1.271,0.721,1.753,1.239c0.483,0.518,0.861,1.121,1.134,1.806
		c0.273,0.686,0.41,1.414,0.41,2.184c0,0.756-0.133,1.477-0.399,2.163s-0.644,1.288-1.134,1.806
		c-0.49,0.519-1.075,0.932-1.753,1.239C143.356-27.558,142.604-27.404,141.777-27.404z M138.145-33.053
		c0,0.574,0.095,1.106,0.284,1.596s0.448,0.917,0.777,1.281c0.329,0.364,0.714,0.651,1.155,0.861
		c0.441,0.21,0.914,0.315,1.417,0.315c0.504,0,0.977-0.105,1.417-0.315c0.441-0.21,0.83-0.5,1.166-0.871
		c0.336-0.371,0.599-0.805,0.788-1.302c0.189-0.497,0.284-1.032,0.284-1.606c0-0.56-0.095-1.088-0.284-1.585
		s-0.451-0.931-0.788-1.302c-0.336-0.371-0.724-0.661-1.166-0.872c-0.441-0.21-0.913-0.315-1.417-0.315
		c-0.504,0-0.976,0.109-1.417,0.326c-0.441,0.217-0.826,0.511-1.155,0.882c-0.329,0.371-0.588,0.805-0.777,1.302
		S138.145-33.627,138.145-33.053z"/>
	<path d="M159.396-27.404c-0.756,0-1.456-0.154-2.1-0.462s-1.197-0.721-1.659-1.239c-0.462-0.518-0.823-1.12-1.082-1.806
		c-0.259-0.686-0.389-1.407-0.389-2.163c0-0.77,0.123-1.501,0.368-2.194c0.245-0.693,0.588-1.299,1.029-1.817
		c0.441-0.518,0.966-0.927,1.575-1.229c0.609-0.301,1.277-0.451,2.005-0.451c0.882,0,1.669,0.231,2.363,0.693
		c0.693,0.462,1.242,1.022,1.648,1.68v-6.552h1.848v13.062c0,0.434,0.196,0.658,0.588,0.672v1.596
		c-0.196,0.028-0.354,0.049-0.473,0.063c-0.119,0.014-0.235,0.021-0.347,0.021c-0.364,0-0.682-0.123-0.956-0.368
		c-0.273-0.245-0.409-0.528-0.409-0.85v-0.924c-0.434,0.714-1.012,1.271-1.732,1.669C160.954-27.603,160.194-27.404,159.396-27.404z
		 M159.837-29c0.336,0,0.683-0.063,1.04-0.189s0.693-0.301,1.008-0.525c0.315-0.224,0.588-0.486,0.819-0.788
		c0.231-0.301,0.381-0.619,0.452-0.955v-3.15c-0.126-0.35-0.315-0.682-0.567-0.998c-0.252-0.315-0.536-0.588-0.851-0.819
		s-0.651-0.413-1.008-0.546c-0.357-0.133-0.71-0.2-1.061-0.2c-0.546,0-1.04,0.116-1.48,0.347s-0.819,0.539-1.134,0.924
		c-0.315,0.385-0.557,0.826-0.725,1.323s-0.252,1.005-0.252,1.522c0,0.546,0.098,1.068,0.294,1.564
		c0.196,0.497,0.462,0.928,0.798,1.292c0.336,0.364,0.731,0.655,1.187,0.872C158.812-29.108,159.305-29,159.837-29z"/>
	<path d="M172.941-27.404c-0.826,0-1.582-0.15-2.268-0.452c-0.687-0.301-1.274-0.71-1.764-1.229
		c-0.49-0.518-0.872-1.123-1.145-1.816c-0.273-0.693-0.41-1.424-0.41-2.194s0.137-1.498,0.41-2.184
		c0.273-0.686,0.658-1.288,1.155-1.806c0.497-0.518,1.088-0.927,1.775-1.229c0.686-0.301,1.441-0.451,2.268-0.451
		s1.579,0.154,2.258,0.462c0.679,0.308,1.256,0.718,1.732,1.229c0.476,0.511,0.843,1.106,1.103,1.785
		c0.259,0.679,0.389,1.382,0.389,2.11c0,0.154-0.004,0.294-0.011,0.42c-0.007,0.126-0.018,0.224-0.032,0.294h-9.093
		c0.042,0.546,0.168,1.043,0.378,1.491s0.483,0.833,0.819,1.155c0.336,0.322,0.717,0.574,1.145,0.756
		c0.427,0.182,0.878,0.273,1.354,0.273c0.336,0,0.665-0.045,0.987-0.137c0.322-0.091,0.623-0.213,0.903-0.368
		c0.28-0.154,0.528-0.343,0.746-0.567c0.217-0.224,0.381-0.476,0.494-0.756l1.596,0.441c-0.182,0.406-0.43,0.777-0.746,1.113
		c-0.315,0.336-0.679,0.627-1.092,0.872c-0.413,0.245-0.872,0.438-1.375,0.578S173.487-27.404,172.941-27.404z M176.7-33.83
		c-0.042-0.518-0.172-0.998-0.389-1.438c-0.217-0.441-0.49-0.815-0.819-1.124c-0.329-0.308-0.711-0.549-1.145-0.725
		c-0.434-0.175-0.896-0.263-1.386-0.263s-0.952,0.088-1.386,0.263c-0.434,0.175-0.816,0.42-1.145,0.735
		c-0.329,0.315-0.595,0.69-0.798,1.124c-0.203,0.434-0.326,0.91-0.368,1.428H176.7z"/>
	<path d="M196.23-29.294v1.68h-10.122v-14.91h9.933v1.68h-8.043v4.83h6.993v1.575h-6.993v5.145H196.23z"/>
	<path d="M202.362-27.404c-0.882,0-1.75-0.136-2.604-0.41c-0.854-0.273-1.589-0.668-2.205-1.187l0.798-1.239
		c0.644,0.49,1.288,0.858,1.932,1.103c0.644,0.245,1.323,0.368,2.037,0.368c0.798,0,1.431-0.158,1.9-0.473s0.704-0.759,0.704-1.333
		c0-0.266-0.063-0.494-0.189-0.683s-0.315-0.354-0.567-0.494c-0.252-0.14-0.574-0.266-0.966-0.378
		c-0.392-0.112-0.847-0.231-1.365-0.357c-0.658-0.168-1.225-0.329-1.701-0.483c-0.476-0.154-0.868-0.336-1.176-0.546
		c-0.308-0.21-0.532-0.462-0.672-0.756c-0.14-0.294-0.21-0.658-0.21-1.092c0-0.546,0.108-1.032,0.326-1.459
		c0.217-0.427,0.515-0.784,0.893-1.071s0.822-0.504,1.333-0.651c0.511-0.147,1.061-0.22,1.648-0.22c0.826,0,1.596,0.133,2.31,0.399
		c0.714,0.266,1.316,0.616,1.806,1.05l-0.84,1.113c-0.462-0.406-0.98-0.71-1.554-0.914c-0.574-0.203-1.163-0.305-1.764-0.305
		c-0.672,0-1.243,0.144-1.711,0.431c-0.469,0.287-0.704,0.746-0.704,1.375c0,0.252,0.045,0.462,0.137,0.63
		c0.091,0.168,0.241,0.315,0.451,0.441s0.479,0.238,0.809,0.336c0.329,0.098,0.725,0.203,1.187,0.315
		c0.728,0.168,1.361,0.339,1.9,0.514c0.539,0.175,0.987,0.382,1.344,0.62c0.357,0.238,0.623,0.518,0.798,0.84
		c0.175,0.322,0.263,0.714,0.263,1.176c0,1.022-0.392,1.834-1.176,2.436S203.692-27.404,202.362-27.404z"/>
	<path d="M214.793-27.404c-0.91,0-1.711-0.224-2.405-0.672c-0.693-0.448-1.242-1.015-1.648-1.701v6.636h-1.848v-15.435h1.638v2.058
		c0.434-0.672,0.998-1.214,1.69-1.628c0.693-0.413,1.459-0.619,2.3-0.619c0.756,0,1.449,0.154,2.079,0.462
		c0.63,0.308,1.176,0.725,1.638,1.25s0.822,1.131,1.082,1.816c0.259,0.686,0.389,1.4,0.389,2.142c0,0.784-0.119,1.522-0.357,2.215
		c-0.238,0.693-0.574,1.295-1.008,1.806c-0.434,0.511-0.952,0.917-1.554,1.218C216.186-27.554,215.521-27.404,214.793-27.404z
		 M214.227-29c0.546,0,1.039-0.115,1.48-0.346c0.441-0.231,0.819-0.539,1.134-0.924c0.315-0.385,0.557-0.822,0.725-1.312
		c0.168-0.49,0.252-0.994,0.252-1.512c0-0.546-0.098-1.067-0.294-1.564c-0.196-0.497-0.462-0.931-0.798-1.302
		c-0.336-0.371-0.732-0.665-1.187-0.882c-0.455-0.217-0.949-0.326-1.48-0.326c-0.336,0-0.683,0.067-1.04,0.2
		c-0.357,0.133-0.693,0.308-1.008,0.525c-0.315,0.217-0.588,0.476-0.819,0.777c-0.231,0.301-0.382,0.62-0.452,0.956v3.129
		c0.154,0.364,0.35,0.704,0.588,1.019c0.238,0.315,0.511,0.588,0.819,0.819c0.308,0.231,0.637,0.413,0.987,0.546
		C213.484-29.066,213.848-29,214.227-29z"/>
	<path d="M226.826-27.404c-0.826,0-1.583-0.15-2.268-0.452c-0.687-0.301-1.274-0.71-1.764-1.229
		c-0.49-0.518-0.872-1.123-1.145-1.816c-0.273-0.693-0.41-1.424-0.41-2.194s0.137-1.498,0.41-2.184
		c0.273-0.686,0.658-1.288,1.155-1.806c0.497-0.518,1.088-0.927,1.775-1.229c0.686-0.301,1.441-0.451,2.268-0.451
		s1.579,0.154,2.258,0.462c0.679,0.308,1.257,0.718,1.732,1.229c0.476,0.511,0.843,1.106,1.103,1.785
		c0.259,0.679,0.389,1.382,0.389,2.11c0,0.154-0.004,0.294-0.011,0.42s-0.018,0.224-0.032,0.294h-9.092
		c0.042,0.546,0.168,1.043,0.378,1.491s0.483,0.833,0.819,1.155c0.336,0.322,0.717,0.574,1.145,0.756
		c0.427,0.182,0.878,0.273,1.354,0.273c0.336,0,0.665-0.045,0.987-0.137c0.321-0.091,0.622-0.213,0.903-0.368
		c0.279-0.154,0.527-0.343,0.745-0.567c0.217-0.224,0.382-0.476,0.493-0.756l1.596,0.441c-0.182,0.406-0.43,0.777-0.745,1.113
		c-0.315,0.336-0.679,0.627-1.092,0.872c-0.413,0.245-0.872,0.438-1.376,0.578S227.372-27.404,226.826-27.404z M230.585-33.83
		c-0.042-0.518-0.172-0.998-0.389-1.438c-0.218-0.441-0.49-0.815-0.819-1.124c-0.328-0.308-0.711-0.549-1.145-0.725
		c-0.434-0.175-0.896-0.263-1.386-0.263s-0.952,0.088-1.386,0.263c-0.434,0.175-0.816,0.42-1.145,0.735
		c-0.329,0.315-0.595,0.69-0.798,1.124c-0.203,0.434-0.326,0.91-0.368,1.428H230.585z"/>
	<path d="M233.65-33.116c0-0.77,0.133-1.498,0.399-2.184c0.267-0.686,0.644-1.284,1.134-1.795c0.49-0.511,1.074-0.917,1.754-1.218
		c0.679-0.301,1.438-0.451,2.278-0.451c1.093,0,2.034,0.241,2.825,0.725c0.791,0.483,1.389,1.13,1.795,1.942l-1.807,0.567
		c-0.279-0.518-0.672-0.92-1.176-1.208c-0.504-0.287-1.063-0.431-1.68-0.431c-0.504,0-0.98,0.102-1.428,0.305
		c-0.448,0.203-0.833,0.487-1.155,0.851c-0.321,0.364-0.577,0.791-0.767,1.281c-0.188,0.49-0.283,1.029-0.283,1.617
		c0,0.574,0.098,1.113,0.294,1.617c0.196,0.504,0.458,0.941,0.788,1.312c0.328,0.371,0.713,0.661,1.154,0.871S238.691-29,239.195-29
		c0.322,0,0.641-0.045,0.955-0.136c0.314-0.091,0.602-0.213,0.861-0.368c0.259-0.154,0.486-0.332,0.682-0.535
		c0.197-0.203,0.336-0.423,0.421-0.662l1.806,0.546c-0.168,0.406-0.402,0.777-0.703,1.113c-0.301,0.336-0.654,0.624-1.061,0.861
		c-0.406,0.238-0.857,0.427-1.354,0.567s-1.019,0.21-1.565,0.21c-0.826,0-1.582-0.154-2.268-0.462s-1.273-0.721-1.764-1.239
		c-0.49-0.518-0.871-1.123-1.145-1.816C233.787-31.615,233.65-32.346,233.65-33.116z"/>
	<path d="M246.02-40.634v-2.31h1.848v2.31H246.02z M246.02-27.614v-10.962h1.848v10.962H246.02z"/>
	<path d="M253.664-27.404c-0.519,0-1.002-0.087-1.449-0.263c-0.449-0.175-0.838-0.416-1.166-0.724
		c-0.329-0.308-0.588-0.668-0.777-1.082c-0.188-0.413-0.283-0.864-0.283-1.354c0-0.504,0.111-0.962,0.336-1.375
		s0.543-0.767,0.955-1.061c0.414-0.294,0.904-0.525,1.471-0.693s1.187-0.252,1.858-0.252c0.532,0,1.071,0.049,1.617,0.147
		c0.546,0.098,1.028,0.231,1.448,0.399v-0.882c0-0.896-0.252-1.599-0.756-2.11c-0.504-0.511-1.218-0.767-2.142-0.767
		c-1.106,0-2.269,0.427-3.485,1.281l-0.609-1.197c1.414-0.952,2.835-1.428,4.263-1.428c1.442,0,2.565,0.385,3.37,1.155
		c0.805,0.77,1.208,1.855,1.208,3.255v4.473c0,0.434,0.196,0.658,0.588,0.672v1.596c-0.196,0.028-0.356,0.049-0.483,0.063
		c-0.125,0.014-0.259,0.021-0.398,0.021c-0.364,0-0.654-0.108-0.871-0.326c-0.218-0.217-0.348-0.479-0.389-0.787l-0.043-0.777
		c-0.49,0.658-1.109,1.159-1.857,1.501C255.318-27.575,254.518-27.404,253.664-27.404z M254.146-28.79
		c0.658,0,1.271-0.123,1.838-0.368c0.566-0.245,0.997-0.57,1.291-0.977c0.266-0.266,0.398-0.539,0.398-0.819v-1.617
		c-0.896-0.35-1.826-0.525-2.793-0.525c-0.924,0-1.676,0.196-2.257,0.588c-0.581,0.392-0.872,0.903-0.872,1.533
		c0,0.308,0.061,0.595,0.179,0.861c0.119,0.266,0.287,0.497,0.505,0.693c0.217,0.196,0.472,0.35,0.766,0.462
		C253.496-28.846,253.811-28.79,254.146-28.79z"/>
	<path d="M262.525-42.944h1.848v12.495c0,0.406,0.108,0.725,0.326,0.956c0.217,0.231,0.521,0.346,0.913,0.346
		c0.153,0,0.336-0.024,0.546-0.073c0.21-0.049,0.406-0.108,0.588-0.179l0.294,1.491c-0.308,0.126-0.672,0.231-1.092,0.315
		s-0.791,0.126-1.113,0.126c-0.714,0-1.277-0.203-1.69-0.609c-0.413-0.406-0.619-0.973-0.619-1.701V-42.944z"/>
	<path d="M268.489-40.634v-2.31h1.848v2.31H268.489z M268.489-27.614v-10.962h1.848v10.962H268.489z"/>
	<path d="M272.458-28.811l7.015-8.421h-6.826v-1.344h8.8v1.197l-6.972,8.421h6.992v1.344h-9.009V-28.811z"/>
	<path d="M286.486-27.404c-0.519,0-1.002-0.087-1.449-0.263c-0.449-0.175-0.838-0.416-1.166-0.724
		c-0.329-0.308-0.588-0.668-0.777-1.082c-0.188-0.413-0.283-0.864-0.283-1.354c0-0.504,0.111-0.962,0.336-1.375
		s0.543-0.767,0.955-1.061c0.414-0.294,0.904-0.525,1.471-0.693s1.187-0.252,1.858-0.252c0.532,0,1.071,0.049,1.616,0.147
		c0.547,0.098,1.029,0.231,1.449,0.399v-0.882c0-0.896-0.252-1.599-0.756-2.11c-0.504-0.511-1.219-0.767-2.143-0.767
		c-1.105,0-2.268,0.427-3.484,1.281l-0.609-1.197c1.414-0.952,2.835-1.428,4.262-1.428c1.441,0,2.566,0.385,3.371,1.155
		c0.805,0.77,1.207,1.855,1.207,3.255v4.473c0,0.434,0.197,0.658,0.588,0.672v1.596c-0.195,0.028-0.357,0.049-0.482,0.063
		c-0.127,0.014-0.26,0.021-0.398,0.021c-0.365,0-0.654-0.108-0.873-0.326c-0.217-0.217-0.346-0.479-0.387-0.787l-0.043-0.777
		c-0.49,0.658-1.109,1.159-1.857,1.501C288.141-27.575,287.34-27.404,286.486-27.404z M286.969-28.79
		c0.658,0,1.27-0.123,1.838-0.368c0.566-0.245,0.996-0.57,1.291-0.977c0.266-0.266,0.398-0.539,0.398-0.819v-1.617
		c-0.896-0.35-1.826-0.525-2.793-0.525c-0.924,0-1.676,0.196-2.257,0.588c-0.581,0.392-0.872,0.903-0.872,1.533
		c0,0.308,0.061,0.595,0.179,0.861c0.119,0.266,0.287,0.497,0.505,0.693c0.217,0.196,0.472,0.35,0.766,0.462
		C286.318-28.846,286.633-28.79,286.969-28.79z"/>
	<path d="M298.52-24.968c0.182,0.098,0.443,0.189,0.787,0.273c0.342,0.084,0.695,0.126,1.061,0.126c0.377,0,0.672-0.056,0.881-0.168
		c0.211-0.112,0.316-0.301,0.316-0.567c0-0.28-0.098-0.473-0.295-0.578c-0.195-0.105-0.455-0.157-0.777-0.157
		c-0.293,0-0.602,0.031-0.924,0.094s-0.574,0.123-0.756,0.179l0.883-1.659c-0.756-0.056-1.449-0.245-2.08-0.567
		c-0.629-0.322-1.172-0.742-1.627-1.26c-0.455-0.518-0.805-1.105-1.051-1.764c-0.244-0.658-0.367-1.358-0.367-2.1
		c0-0.77,0.133-1.498,0.4-2.184c0.266-0.686,0.643-1.284,1.133-1.795c0.49-0.511,1.074-0.917,1.754-1.218
		c0.68-0.301,1.439-0.451,2.279-0.451c1.092,0,2.033,0.241,2.824,0.725c0.791,0.483,1.389,1.13,1.795,1.942l-1.807,0.567
		c-0.279-0.518-0.672-0.92-1.176-1.208c-0.504-0.287-1.064-0.431-1.68-0.431c-0.504,0-0.98,0.102-1.428,0.305
		c-0.449,0.203-0.834,0.487-1.154,0.851c-0.322,0.364-0.578,0.791-0.768,1.281c-0.189,0.49-0.283,1.029-0.283,1.617
		c0,0.574,0.098,1.113,0.295,1.617c0.195,0.504,0.457,0.941,0.787,1.312c0.328,0.371,0.713,0.661,1.154,0.871S299.611-29,300.115-29
		c0.322,0,0.641-0.045,0.955-0.136c0.314-0.091,0.602-0.213,0.861-0.368c0.258-0.154,0.486-0.332,0.682-0.535
		c0.197-0.203,0.336-0.423,0.42-0.662l1.807,0.546c-0.309,0.756-0.836,1.379-1.586,1.869c-0.748,0.49-1.619,0.777-2.613,0.861
		l-0.525,0.819c0.111-0.042,0.238-0.07,0.377-0.084c0.141-0.014,0.266-0.021,0.379-0.021c0.49,0,0.889,0.112,1.197,0.336
		c0.307,0.224,0.461,0.56,0.461,1.008c0,0.49-0.195,0.875-0.588,1.155c-0.391,0.28-0.965,0.42-1.721,0.42
		c-0.42,0-0.809-0.039-1.166-0.115c-0.357-0.077-0.676-0.172-0.955-0.284L298.52-24.968z"/>
	<path d="M309.754-27.404c-0.518,0-1.002-0.087-1.449-0.263c-0.447-0.175-0.836-0.416-1.166-0.724
		c-0.328-0.308-0.588-0.668-0.777-1.082c-0.188-0.413-0.283-0.864-0.283-1.354c0-0.504,0.113-0.962,0.336-1.375
		c0.225-0.413,0.543-0.767,0.957-1.061c0.412-0.294,0.902-0.525,1.469-0.693c0.568-0.168,1.188-0.252,1.859-0.252
		c0.531,0,1.07,0.049,1.617,0.147c0.545,0.098,1.029,0.231,1.449,0.399v-0.882c0-0.896-0.252-1.599-0.758-2.11
		c-0.504-0.511-1.217-0.767-2.141-0.767c-1.107,0-2.268,0.427-3.486,1.281l-0.609-1.197c1.414-0.952,2.836-1.428,4.264-1.428
		c1.441,0,2.564,0.385,3.369,1.155c0.807,0.77,1.209,1.855,1.209,3.255v4.473c0,0.434,0.195,0.658,0.588,0.672v1.596
		c-0.197,0.028-0.357,0.049-0.484,0.063c-0.125,0.014-0.258,0.021-0.398,0.021c-0.363,0-0.654-0.108-0.871-0.326
		c-0.217-0.217-0.346-0.479-0.389-0.787l-0.041-0.777c-0.49,0.658-1.111,1.159-1.859,1.501
		C311.408-27.575,310.607-27.404,309.754-27.404z M312.336-40.781c-0.322,0-0.598-0.045-0.828-0.137
		c-0.232-0.091-0.449-0.192-0.652-0.304c-0.203-0.112-0.402-0.213-0.598-0.305c-0.197-0.091-0.406-0.136-0.631-0.136
		c-0.238,0-0.422,0.049-0.557,0.147c-0.133,0.098-0.234,0.207-0.303,0.325c-0.07,0.119-0.117,0.235-0.137,0.347
		c-0.021,0.112-0.031,0.175-0.031,0.189h-1.094c0-0.084,0.033-0.245,0.096-0.483c0.062-0.238,0.172-0.483,0.324-0.735
		c0.154-0.252,0.365-0.473,0.631-0.662s0.609-0.284,1.029-0.284c0.293,0,0.553,0.046,0.777,0.137
		c0.223,0.091,0.438,0.196,0.641,0.315c0.201,0.119,0.404,0.224,0.607,0.315c0.203,0.091,0.432,0.137,0.684,0.137
		c0.266,0,0.477-0.049,0.629-0.147c0.154-0.098,0.273-0.21,0.357-0.336s0.137-0.241,0.158-0.346s0.031-0.171,0.031-0.2h1.092
		c0,0.084-0.031,0.242-0.094,0.473c-0.064,0.231-0.18,0.473-0.348,0.725s-0.395,0.476-0.682,0.672
		C313.152-40.879,312.785-40.781,312.336-40.781z M310.236-28.79c0.658,0,1.271-0.123,1.838-0.368
		c0.566-0.245,0.998-0.57,1.291-0.977c0.266-0.266,0.4-0.539,0.4-0.819v-1.617c-0.896-0.35-1.828-0.525-2.793-0.525
		c-0.926,0-1.678,0.196-2.258,0.588c-0.582,0.392-0.873,0.903-0.873,1.533c0,0.308,0.061,0.595,0.18,0.861
		c0.119,0.266,0.287,0.497,0.504,0.693c0.217,0.196,0.473,0.35,0.766,0.462C309.586-28.846,309.9-28.79,310.236-28.79z"/>
	<path d="M323.361-27.404c-0.826,0-1.58-0.154-2.258-0.462c-0.68-0.308-1.26-0.721-1.744-1.239c-0.482-0.518-0.857-1.12-1.123-1.806
		s-0.398-1.407-0.398-2.163c0-0.77,0.137-1.498,0.408-2.184c0.273-0.686,0.652-1.288,1.135-1.806
		c0.482-0.518,1.064-0.931,1.744-1.239c0.678-0.308,1.424-0.462,2.236-0.462c0.811,0,1.561,0.154,2.246,0.462
		c0.686,0.308,1.271,0.721,1.754,1.239c0.482,0.518,0.861,1.121,1.133,1.806c0.273,0.686,0.41,1.414,0.41,2.184
		c0,0.756-0.133,1.477-0.398,2.163s-0.645,1.288-1.135,1.806c-0.49,0.519-1.074,0.932-1.754,1.239
		C324.939-27.558,324.186-27.404,323.361-27.404z M319.729-33.053c0,0.574,0.094,1.106,0.283,1.596
		c0.188,0.49,0.447,0.917,0.775,1.281c0.33,0.364,0.715,0.651,1.156,0.861S322.857-29,323.361-29s0.977-0.105,1.416-0.315
		c0.441-0.21,0.83-0.5,1.166-0.871s0.6-0.805,0.787-1.302c0.189-0.497,0.283-1.032,0.283-1.606c0-0.56-0.094-1.088-0.283-1.585
		c-0.188-0.497-0.451-0.931-0.787-1.302c-0.336-0.371-0.725-0.661-1.166-0.872c-0.439-0.21-0.912-0.315-1.416-0.315
		s-0.977,0.109-1.418,0.326c-0.441,0.217-0.826,0.511-1.156,0.882c-0.328,0.371-0.588,0.805-0.775,1.302
		C319.822-34.162,319.729-33.627,319.729-33.053z"/>
</g>
</svg>
